<mxfile host="Electron" modified="2024-05-31T13:14:38.273Z" agent="Mozilla/5.0 (Windows NT 10.0; Win64; x64) AppleWebKit/537.36 (KHTML, like Gecko) draw.io/23.1.5 Chrome/120.0.6099.109 Electron/28.1.0 Safari/537.36" etag="9luPnvz7AnEwjLfg7JyN" version="23.1.5" type="device" pages="14">
  <diagram id="Z8alc_GF0qSaNqmglOHA" name="1. Big Picture">
    <mxGraphModel dx="1418" dy="828" grid="1" gridSize="10" guides="1" tooltips="1" connect="1" arrows="1" fold="1" page="1" pageScale="1" pageWidth="827" pageHeight="1169" math="0" shadow="0">
      <root>
        <mxCell id="0" />
        <mxCell id="1" parent="0" />
        <mxCell id="o7r9CXutTwFcwA9D_nWZ-1" value="Body Healty" style="ellipse;whiteSpace=wrap;html=1;fillColor=#B3B3B3;" parent="1" vertex="1">
          <mxGeometry x="360" y="320" width="120" height="80" as="geometry" />
        </mxCell>
      </root>
    </mxGraphModel>
  </diagram>
  <diagram id="IKFuEPPVAC9YtJLC4RY6" name="2. ModeloContextosAcotados">
    <mxGraphModel dx="1418" dy="828" grid="1" gridSize="10" guides="1" tooltips="1" connect="1" arrows="1" fold="1" page="1" pageScale="1" pageWidth="827" pageHeight="1169" math="0" shadow="0">
      <root>
        <mxCell id="0" />
        <mxCell id="1" parent="0" />
        <mxCell id="vD63ppXe4_XX1ZtlGXsk-1" value="" style="rounded=1;whiteSpace=wrap;html=1;fillColor=#f5f5f5;strokeColor=#666666;gradientColor=#B3B3B3;" parent="1" vertex="1">
          <mxGeometry x="260" y="280" width="400" height="590" as="geometry" />
        </mxCell>
        <mxCell id="X9GkQ7M2qUQWRVh2BKbq-1" value="Body Healty" style="text;html=1;align=center;verticalAlign=middle;resizable=0;points=[];autosize=1;strokeColor=none;fillColor=none;fontStyle=1;fontSize=27;" parent="1" vertex="1">
          <mxGeometry x="390" y="290" width="180" height="50" as="geometry" />
        </mxCell>
        <mxCell id="ubFszpZdWnNh4qxW8XXl-6" style="edgeStyle=orthogonalEdgeStyle;rounded=0;orthogonalLoop=1;jettySize=auto;html=1;entryX=0.5;entryY=1;entryDx=0;entryDy=0;dashed=1;" parent="1" source="M5JIvVgLrzdmSp-Zp3Ui-1" target="121oiR91XI23B-yqQdn_-6" edge="1">
          <mxGeometry relative="1" as="geometry" />
        </mxCell>
        <mxCell id="M5JIvVgLrzdmSp-Zp3Ui-1" value="Servicios" style="ellipse;whiteSpace=wrap;html=1;fillColor=#d5e8d4;strokeColor=#82b366;" parent="1" vertex="1">
          <mxGeometry x="290" y="740" width="120" height="80" as="geometry" />
        </mxCell>
        <mxCell id="E7zCLqai765pgef_NSAo-2" style="edgeStyle=orthogonalEdgeStyle;rounded=0;orthogonalLoop=1;jettySize=auto;html=1;dashed=1;entryX=0.5;entryY=1;entryDx=0;entryDy=0;" parent="1" source="M5JIvVgLrzdmSp-Zp3Ui-2" target="121oiR91XI23B-yqQdn_-1" edge="1">
          <mxGeometry relative="1" as="geometry">
            <mxPoint x="390.00000000000045" y="420" as="targetPoint" />
          </mxGeometry>
        </mxCell>
        <mxCell id="E7zCLqai765pgef_NSAo-3" value="&amp;lt;&amp;lt;needed of&amp;gt;&amp;gt;" style="edgeLabel;html=1;align=center;verticalAlign=middle;resizable=0;points=[];labelBackgroundColor=none;" parent="E7zCLqai765pgef_NSAo-2" vertex="1" connectable="0">
          <mxGeometry x="-0.1808" y="5" relative="1" as="geometry">
            <mxPoint x="5" y="-14" as="offset" />
          </mxGeometry>
        </mxCell>
        <mxCell id="E7zCLqai765pgef_NSAo-4" style="edgeStyle=orthogonalEdgeStyle;rounded=0;orthogonalLoop=1;jettySize=auto;html=1;dashed=1;" parent="1" source="M5JIvVgLrzdmSp-Zp3Ui-2" target="M5JIvVgLrzdmSp-Zp3Ui-1" edge="1">
          <mxGeometry relative="1" as="geometry" />
        </mxCell>
        <mxCell id="121oiR91XI23B-yqQdn_-15" style="edgeStyle=orthogonalEdgeStyle;rounded=0;orthogonalLoop=1;jettySize=auto;html=1;entryX=0;entryY=0.5;entryDx=0;entryDy=0;dashed=1;" parent="1" source="M5JIvVgLrzdmSp-Zp3Ui-2" target="121oiR91XI23B-yqQdn_-6" edge="1">
          <mxGeometry relative="1" as="geometry" />
        </mxCell>
        <mxCell id="M5JIvVgLrzdmSp-Zp3Ui-2" value="Citas" style="ellipse;whiteSpace=wrap;html=1;fillColor=#f8cecc;strokeColor=#b85450;" parent="1" vertex="1">
          <mxGeometry x="290" y="520" width="120" height="80" as="geometry" />
        </mxCell>
        <mxCell id="E7zCLqai765pgef_NSAo-5" value="&amp;lt;&amp;lt;needed of&amp;gt;&amp;gt;" style="edgeLabel;html=1;align=center;verticalAlign=middle;resizable=0;points=[];labelBackgroundColor=none;" parent="1" vertex="1" connectable="0">
          <mxGeometry x="350" y="669.9966666666668" as="geometry" />
        </mxCell>
        <mxCell id="ubFszpZdWnNh4qxW8XXl-3" style="edgeStyle=orthogonalEdgeStyle;rounded=0;orthogonalLoop=1;jettySize=auto;html=1;dashed=1;" parent="1" source="121oiR91XI23B-yqQdn_-1" target="ubFszpZdWnNh4qxW8XXl-1" edge="1">
          <mxGeometry relative="1" as="geometry" />
        </mxCell>
        <mxCell id="121oiR91XI23B-yqQdn_-1" value="Pacientes" style="ellipse;whiteSpace=wrap;html=1;fillColor=#fff2cc;strokeColor=#d6b656;" parent="1" vertex="1">
          <mxGeometry x="290" y="340" width="120" height="80" as="geometry" />
        </mxCell>
        <mxCell id="ubFszpZdWnNh4qxW8XXl-2" style="edgeStyle=orthogonalEdgeStyle;rounded=0;orthogonalLoop=1;jettySize=auto;html=1;exitX=0.5;exitY=0;exitDx=0;exitDy=0;dashed=1;" parent="1" source="121oiR91XI23B-yqQdn_-6" target="ubFszpZdWnNh4qxW8XXl-1" edge="1">
          <mxGeometry relative="1" as="geometry" />
        </mxCell>
        <mxCell id="121oiR91XI23B-yqQdn_-6" value="Empleados" style="ellipse;whiteSpace=wrap;html=1;fillColor=#D5739D;strokeColor=#996185;gradientColor=#d5739d;" parent="1" vertex="1">
          <mxGeometry x="530" y="520" width="120" height="80" as="geometry" />
        </mxCell>
        <mxCell id="121oiR91XI23B-yqQdn_-9" value="&amp;lt;&amp;lt;needed of&amp;gt;&amp;gt;" style="edgeLabel;html=1;align=center;verticalAlign=middle;resizable=0;points=[];labelBackgroundColor=none;" parent="1" vertex="1" connectable="0">
          <mxGeometry x="456" y="549.9966666666668" as="geometry" />
        </mxCell>
        <mxCell id="121oiR91XI23B-yqQdn_-10" value="&amp;lt;&amp;lt;needed of&amp;gt;&amp;gt;" style="edgeLabel;html=1;align=center;verticalAlign=middle;resizable=0;points=[];labelBackgroundColor=none;" parent="1" vertex="1" connectable="0">
          <mxGeometry x="580" y="709.9966666666668" as="geometry" />
        </mxCell>
        <mxCell id="ubFszpZdWnNh4qxW8XXl-1" value="Comunes" style="ellipse;whiteSpace=wrap;html=1;fillColor=#e1d5e7;strokeColor=#9673a6;" parent="1" vertex="1">
          <mxGeometry x="530" y="340" width="120" height="80" as="geometry" />
        </mxCell>
        <mxCell id="ubFszpZdWnNh4qxW8XXl-4" value="&amp;lt;&amp;lt;needed of&amp;gt;&amp;gt;" style="edgeLabel;html=1;align=center;verticalAlign=middle;resizable=0;points=[];labelBackgroundColor=none;" parent="1" vertex="1" connectable="0">
          <mxGeometry x="460" y="365" as="geometry" />
        </mxCell>
        <mxCell id="ubFszpZdWnNh4qxW8XXl-5" value="&amp;lt;&amp;lt;needed of&amp;gt;&amp;gt;" style="edgeLabel;html=1;align=center;verticalAlign=middle;resizable=0;points=[];labelBackgroundColor=none;" parent="1" vertex="1" connectable="0">
          <mxGeometry x="590" y="465" as="geometry" />
        </mxCell>
      </root>
    </mxGraphModel>
  </diagram>
  <diagram id="WLfZIqeEL1TRZD2CwbBt" name="3. ModeloDominioAnÃ©micoCompletoDelimitado">
    <mxGraphModel dx="3072" dy="828" grid="1" gridSize="10" guides="1" tooltips="1" connect="1" arrows="1" fold="1" page="1" pageScale="1" pageWidth="827" pageHeight="1169" math="0" shadow="0">
      <root>
        <mxCell id="0" />
        <mxCell id="1" parent="0" />
        <mxCell id="9YJqiHCi21VyPymQQ33P-1" value="Pacientes" style="ellipse;whiteSpace=wrap;html=1;fillColor=#fff2cc;strokeColor=#d6b656;" parent="1" vertex="1">
          <mxGeometry x="-1000" y="1530" width="120" height="80" as="geometry" />
        </mxCell>
        <mxCell id="9YJqiHCi21VyPymQQ33P-2" value="Servicios" style="ellipse;whiteSpace=wrap;html=1;fillColor=#D5E8D4;strokeColor=#82b366;" parent="1" vertex="1">
          <mxGeometry x="-860" y="1530" width="120" height="80" as="geometry" />
        </mxCell>
        <mxCell id="9YJqiHCi21VyPymQQ33P-3" value="Citas" style="ellipse;whiteSpace=wrap;html=1;fillColor=#F8CECC;strokeColor=#b85450;" parent="1" vertex="1">
          <mxGeometry x="-708" y="1530" width="120" height="80" as="geometry" />
        </mxCell>
        <mxCell id="yElBieFRoCNVJtRoK0Lz-1" value="Empleados" style="ellipse;whiteSpace=wrap;html=1;fillColor=#D5739D;strokeColor=#996185;gradientColor=#d5739d;" parent="1" vertex="1">
          <mxGeometry x="-860" y="1650" width="120" height="80" as="geometry" />
        </mxCell>
        <mxCell id="KKlxI9FkVCkoymXRjmEL-8" value="Comunes" style="ellipse;whiteSpace=wrap;html=1;fillColor=#e1d5e7;strokeColor=#9673a6;" parent="1" vertex="1">
          <mxGeometry x="-1000" y="1650" width="120" height="80" as="geometry" />
        </mxCell>
        <mxCell id="EFmtBaSsY3daYoN9ahMV-1" value="Paciente" style="rounded=0;whiteSpace=wrap;html=1;fillColor=#fff2cc;strokeColor=#d6b656;" parent="1" vertex="1">
          <mxGeometry x="-842" y="424.68000000000006" width="120" height="60" as="geometry" />
        </mxCell>
        <mxCell id="EFmtBaSsY3daYoN9ahMV-2" style="edgeStyle=orthogonalEdgeStyle;rounded=0;orthogonalLoop=1;jettySize=auto;html=1;endArrow=none;endFill=0;" parent="1" target="EFmtBaSsY3daYoN9ahMV-5" edge="1">
          <mxGeometry relative="1" as="geometry">
            <mxPoint x="-780" y="484.67999999999995" as="sourcePoint" />
          </mxGeometry>
        </mxCell>
        <mxCell id="EFmtBaSsY3daYoN9ahMV-3" value="1" style="edgeLabel;html=1;align=center;verticalAlign=middle;resizable=0;points=[];" parent="EFmtBaSsY3daYoN9ahMV-2" vertex="1" connectable="0">
          <mxGeometry x="0.7633" y="2" relative="1" as="geometry">
            <mxPoint x="3" y="4" as="offset" />
          </mxGeometry>
        </mxCell>
        <mxCell id="EFmtBaSsY3daYoN9ahMV-4" value="0...*" style="edgeLabel;html=1;align=center;verticalAlign=middle;resizable=0;points=[];" parent="EFmtBaSsY3daYoN9ahMV-2" vertex="1" connectable="0">
          <mxGeometry x="-0.8694" relative="1" as="geometry">
            <mxPoint x="-13" as="offset" />
          </mxGeometry>
        </mxCell>
        <mxCell id="EFmtBaSsY3daYoN9ahMV-5" value="TipoDocumento" style="rounded=0;whiteSpace=wrap;html=1;fillColor=#e1d5e7;strokeColor=#9673a6;" parent="1" vertex="1">
          <mxGeometry x="-824.5" y="597.3399999999999" width="89" height="60" as="geometry" />
        </mxCell>
        <mxCell id="EFmtBaSsY3daYoN9ahMV-6" value="tiene--&amp;gt;" style="edgeLabel;html=1;align=center;verticalAlign=middle;resizable=0;points=[];rotation=90;" parent="1" vertex="1" connectable="0">
          <mxGeometry x="-770" y="544.68" as="geometry" />
        </mxCell>
        <mxCell id="EFmtBaSsY3daYoN9ahMV-7" value="&amp;lt;--es usado" style="edgeLabel;html=1;align=center;verticalAlign=middle;resizable=0;points=[];rotation=90;" parent="1" vertex="1" connectable="0">
          <mxGeometry x="-787" y="542.68" as="geometry" />
        </mxCell>
        <mxCell id="EFmtBaSsY3daYoN9ahMV-8" value="0...*" style="edgeLabel;html=1;align=center;verticalAlign=middle;resizable=0;points=[];" parent="1" vertex="1" connectable="0">
          <mxGeometry x="-782.9330198090142" y="504.12420692902344" as="geometry">
            <mxPoint x="-11" y="782" as="offset" />
          </mxGeometry>
        </mxCell>
        <mxCell id="zj5K5xO4poSrkNLzeTzS-1" style="edgeStyle=orthogonalEdgeStyle;rounded=0;orthogonalLoop=1;jettySize=auto;html=1;endArrow=none;endFill=0;entryX=1;entryY=0.5;entryDx=0;entryDy=0;exitX=0;exitY=0.5;exitDx=0;exitDy=0;" parent="1" source="zj5K5xO4poSrkNLzeTzS-10" target="oA7EZHAGhiuYAOzVzyNf-2" edge="1">
          <mxGeometry relative="1" as="geometry">
            <mxPoint x="-19" y="864.3400000000003" as="targetPoint" />
            <mxPoint x="-22" y="1194.34" as="sourcePoint" />
          </mxGeometry>
        </mxCell>
        <mxCell id="zj5K5xO4poSrkNLzeTzS-2" value="asigna--&amp;gt;" style="edgeLabel;html=1;align=center;verticalAlign=middle;resizable=0;points=[];rotation=0;" parent="zj5K5xO4poSrkNLzeTzS-1" vertex="1" connectable="0">
          <mxGeometry x="0.6685" y="3" relative="1" as="geometry">
            <mxPoint x="94" y="-20" as="offset" />
          </mxGeometry>
        </mxCell>
        <mxCell id="zj5K5xO4poSrkNLzeTzS-3" value="&amp;lt;--pertenece" style="edgeLabel;html=1;align=center;verticalAlign=middle;resizable=0;points=[];rotation=0;" parent="zj5K5xO4poSrkNLzeTzS-1" vertex="1" connectable="0">
          <mxGeometry x="0.6898" relative="1" as="geometry">
            <mxPoint x="91" y="12" as="offset" />
          </mxGeometry>
        </mxCell>
        <mxCell id="oA7EZHAGhiuYAOzVzyNf-21" style="edgeStyle=orthogonalEdgeStyle;rounded=0;orthogonalLoop=1;jettySize=auto;html=1;exitX=0.5;exitY=0;exitDx=0;exitDy=0;endArrow=none;endFill=0;" parent="1" source="zj5K5xO4poSrkNLzeTzS-4" target="zj5K5xO4poSrkNLzeTzS-10" edge="1">
          <mxGeometry relative="1" as="geometry" />
        </mxCell>
        <mxCell id="zj5K5xO4poSrkNLzeTzS-4" value="Servicio" style="rounded=0;whiteSpace=wrap;html=1;fillColor=#d5e8d4;strokeColor=#82b366;" parent="1" vertex="1">
          <mxGeometry x="-472" y="1180.0000000000002" width="120" height="60" as="geometry" />
        </mxCell>
        <mxCell id="zj5K5xO4poSrkNLzeTzS-5" value="&amp;lt;--asocia" style="edgeLabel;html=1;align=center;verticalAlign=middle;resizable=0;points=[];rotation=90;" parent="1" vertex="1" connectable="0">
          <mxGeometry x="-391.83000000000027" y="1080.0000000000002" as="geometry">
            <mxPoint x="1" y="8" as="offset" />
          </mxGeometry>
        </mxCell>
        <mxCell id="zj5K5xO4poSrkNLzeTzS-6" value="ofrece--&amp;gt;" style="edgeLabel;html=1;align=center;verticalAlign=middle;resizable=0;points=[];rotation=90;" parent="1" vertex="1" connectable="0">
          <mxGeometry x="-412.0004761904763" y="1079.0000000000002" as="geometry">
            <mxPoint x="3.9999999999999996" y="11" as="offset" />
          </mxGeometry>
        </mxCell>
        <mxCell id="zj5K5xO4poSrkNLzeTzS-7" value="1...*" style="edgeLabel;html=1;align=center;verticalAlign=middle;resizable=0;points=[];" parent="1" vertex="1" connectable="0">
          <mxGeometry x="-408.00000000000017" y="1007.0000000000006" as="geometry">
            <mxPoint x="10" y="-6" as="offset" />
          </mxGeometry>
        </mxCell>
        <mxCell id="zj5K5xO4poSrkNLzeTzS-8" value="1" style="edgeLabel;html=1;align=center;verticalAlign=middle;resizable=0;points=[];" parent="1" vertex="1" connectable="0">
          <mxGeometry x="-285.5" y="1250.0000000000005" as="geometry">
            <mxPoint x="126" y="-4" as="offset" />
          </mxGeometry>
        </mxCell>
        <mxCell id="zj5K5xO4poSrkNLzeTzS-10" value="PersonalSeleccionado" style="rounded=0;whiteSpace=wrap;html=1;fillColor=#d5e8d4;strokeColor=#82b366;" parent="1" vertex="1">
          <mxGeometry x="-472" y="932.0000000000002" width="120" height="60" as="geometry" />
        </mxCell>
        <mxCell id="zj5K5xO4poSrkNLzeTzS-11" value="1...*" style="edgeLabel;html=1;align=center;verticalAlign=middle;resizable=0;points=[];" parent="1" vertex="1" connectable="0">
          <mxGeometry x="-615" y="952.0000000000005" as="geometry">
            <mxPoint x="126" y="-4" as="offset" />
          </mxGeometry>
        </mxCell>
        <mxCell id="zj5K5xO4poSrkNLzeTzS-12" value="1" style="edgeLabel;html=1;align=center;verticalAlign=middle;resizable=0;points=[];" parent="1" vertex="1" connectable="0">
          <mxGeometry x="-712.0000000000002" y="980.0000000000007" as="geometry">
            <mxPoint x="2" y="-7" as="offset" />
          </mxGeometry>
        </mxCell>
        <mxCell id="zj5K5xO4poSrkNLzeTzS-13" style="edgeStyle=orthogonalEdgeStyle;rounded=0;orthogonalLoop=1;jettySize=auto;html=1;exitX=0.5;exitY=1;exitDx=0;exitDy=0;" parent="1" edge="1">
          <mxGeometry relative="1" as="geometry">
            <mxPoint x="-409" y="1260" as="sourcePoint" />
            <mxPoint x="-409" y="1260" as="targetPoint" />
          </mxGeometry>
        </mxCell>
        <mxCell id="oA7EZHAGhiuYAOzVzyNf-1" style="edgeStyle=orthogonalEdgeStyle;rounded=0;orthogonalLoop=1;jettySize=auto;html=1;endArrow=none;endFill=0;" parent="1" source="oA7EZHAGhiuYAOzVzyNf-2" target="oA7EZHAGhiuYAOzVzyNf-7" edge="1">
          <mxGeometry relative="1" as="geometry" />
        </mxCell>
        <mxCell id="LF1QeDJF4zM-EZiD3-v1-38" style="edgeStyle=orthogonalEdgeStyle;rounded=0;orthogonalLoop=1;jettySize=auto;html=1;entryX=0;entryY=0.5;entryDx=0;entryDy=0;endArrow=none;endFill=0;" parent="1" source="oA7EZHAGhiuYAOzVzyNf-2" target="EFmtBaSsY3daYoN9ahMV-5" edge="1">
          <mxGeometry relative="1" as="geometry">
            <Array as="points">
              <mxPoint x="-982" y="962" />
              <mxPoint x="-982" y="627" />
            </Array>
          </mxGeometry>
        </mxCell>
        <mxCell id="oA7EZHAGhiuYAOzVzyNf-2" value="Personal" style="rounded=0;whiteSpace=wrap;html=1;fillColor=#D5739D;strokeColor=#000000;gradientColor=#d5739d;" parent="1" vertex="1">
          <mxGeometry x="-842" y="932" width="120" height="60" as="geometry" />
        </mxCell>
        <mxCell id="oA7EZHAGhiuYAOzVzyNf-3" value="1...*" style="edgeLabel;html=1;align=center;verticalAlign=middle;resizable=0;points=[];" parent="1" vertex="1" connectable="0">
          <mxGeometry x="-769.0000000000002" y="1099.002857142857" as="geometry" />
        </mxCell>
        <mxCell id="oA7EZHAGhiuYAOzVzyNf-4" value="1" style="edgeLabel;html=1;align=center;verticalAlign=middle;resizable=0;points=[];" parent="1" vertex="1" connectable="0">
          <mxGeometry x="-791" y="1002.0028571428575" as="geometry" />
        </mxCell>
        <mxCell id="oA7EZHAGhiuYAOzVzyNf-5" value="asocia--&amp;gt;" style="edgeLabel;html=1;align=center;verticalAlign=middle;resizable=0;points=[];rotation=90;" parent="1" vertex="1" connectable="0">
          <mxGeometry x="-773" y="1050.2885714285717" as="geometry">
            <mxPoint x="8" y="-3" as="offset" />
          </mxGeometry>
        </mxCell>
        <mxCell id="oA7EZHAGhiuYAOzVzyNf-6" value="&amp;lt;--pertenece" style="edgeLabel;html=1;align=center;verticalAlign=middle;resizable=0;points=[];rotation=90;" parent="1" vertex="1" connectable="0">
          <mxGeometry x="-793" y="1047.574285714286" as="geometry">
            <mxPoint x="4" y="-2.9999999999999996" as="offset" />
          </mxGeometry>
        </mxCell>
        <mxCell id="oA7EZHAGhiuYAOzVzyNf-7" value="PersonalEspecialidad" style="rounded=0;whiteSpace=wrap;html=1;fillColor=#D5739D;strokeColor=#000000;gradientColor=#d5739d;" parent="1" vertex="1">
          <mxGeometry x="-842" y="1112.8600000000001" width="120" height="60" as="geometry" />
        </mxCell>
        <mxCell id="oA7EZHAGhiuYAOzVzyNf-8" style="edgeStyle=orthogonalEdgeStyle;rounded=0;orthogonalLoop=1;jettySize=auto;html=1;endArrow=none;endFill=0;" parent="1" source="oA7EZHAGhiuYAOzVzyNf-14" target="oA7EZHAGhiuYAOzVzyNf-7" edge="1">
          <mxGeometry relative="1" as="geometry" />
        </mxCell>
        <mxCell id="oA7EZHAGhiuYAOzVzyNf-9" value="1...*" style="edgeLabel;html=1;align=center;verticalAlign=middle;resizable=0;points=[];" parent="oA7EZHAGhiuYAOzVzyNf-8" vertex="1" connectable="0">
          <mxGeometry x="0.7471" y="-1" relative="1" as="geometry">
            <mxPoint x="12" y="-5" as="offset" />
          </mxGeometry>
        </mxCell>
        <mxCell id="oA7EZHAGhiuYAOzVzyNf-10" value="&lt;div&gt;&lt;br/&gt;&lt;/div&gt;" style="edgeLabel;html=1;align=center;verticalAlign=middle;resizable=0;points=[];" parent="oA7EZHAGhiuYAOzVzyNf-8" vertex="1" connectable="0">
          <mxGeometry x="-0.7471" y="3" relative="1" as="geometry">
            <mxPoint x="-5" as="offset" />
          </mxGeometry>
        </mxCell>
        <mxCell id="oA7EZHAGhiuYAOzVzyNf-11" value="1" style="edgeLabel;html=1;align=center;verticalAlign=middle;resizable=0;points=[];" parent="oA7EZHAGhiuYAOzVzyNf-8" vertex="1" connectable="0">
          <mxGeometry x="-0.7262" y="-4" relative="1" as="geometry">
            <mxPoint x="-14" as="offset" />
          </mxGeometry>
        </mxCell>
        <mxCell id="oA7EZHAGhiuYAOzVzyNf-12" value="&amp;lt;--asocia" style="edgeLabel;html=1;align=center;verticalAlign=middle;resizable=0;points=[];rotation=90;" parent="oA7EZHAGhiuYAOzVzyNf-8" vertex="1" connectable="0">
          <mxGeometry x="0.1515" relative="1" as="geometry">
            <mxPoint x="13" y="1" as="offset" />
          </mxGeometry>
        </mxCell>
        <mxCell id="oA7EZHAGhiuYAOzVzyNf-13" value="tiene--&amp;gt;" style="edgeLabel;html=1;align=center;verticalAlign=middle;resizable=0;points=[];rotation=90;" parent="oA7EZHAGhiuYAOzVzyNf-8" vertex="1" connectable="0">
          <mxGeometry x="0.0993" y="1" relative="1" as="geometry">
            <mxPoint x="-8" as="offset" />
          </mxGeometry>
        </mxCell>
        <mxCell id="oA7EZHAGhiuYAOzVzyNf-14" value="Especialidad" style="rounded=0;whiteSpace=wrap;html=1;fillColor=#D5739D;strokeColor=#000000;gradientColor=#d5739d;" parent="1" vertex="1">
          <mxGeometry x="-842" y="1277.8600000000001" width="120" height="60" as="geometry" />
        </mxCell>
        <mxCell id="oA7EZHAGhiuYAOzVzyNf-15" style="edgeStyle=orthogonalEdgeStyle;rounded=0;orthogonalLoop=1;jettySize=auto;html=1;endArrow=none;endFill=0;exitX=0.5;exitY=0;exitDx=0;exitDy=0;" parent="1" source="oA7EZHAGhiuYAOzVzyNf-2" target="oA7EZHAGhiuYAOzVzyNf-17" edge="1">
          <mxGeometry relative="1" as="geometry">
            <mxPoint x="-782" y="732" as="sourcePoint" />
          </mxGeometry>
        </mxCell>
        <mxCell id="oA7EZHAGhiuYAOzVzyNf-16" value="1" style="edgeLabel;html=1;align=center;verticalAlign=middle;resizable=0;points=[];" parent="1" vertex="1" connectable="0">
          <mxGeometry x="-763.0018181818182" y="916.3400000000001" as="geometry">
            <mxPoint x="-12" y="3" as="offset" />
          </mxGeometry>
        </mxCell>
        <mxCell id="oA7EZHAGhiuYAOzVzyNf-17" value="Agenda" style="rounded=0;whiteSpace=wrap;html=1;fillColor=#f8cecc;strokeColor=#b85450;" parent="1" vertex="1">
          <mxGeometry x="-842" y="760.0000000000002" width="120" height="60" as="geometry" />
        </mxCell>
        <mxCell id="oA7EZHAGhiuYAOzVzyNf-18" value="pertenece--&amp;gt;" style="edgeLabel;html=1;align=center;verticalAlign=middle;resizable=0;points=[];rotation=90;" parent="1" vertex="1" connectable="0">
          <mxGeometry x="-773" y="876.0035204821977" as="geometry" />
        </mxCell>
        <mxCell id="oA7EZHAGhiuYAOzVzyNf-19" value="&amp;lt;--asocia" style="edgeLabel;html=1;align=center;verticalAlign=middle;resizable=0;points=[];rotation=90;" parent="1" vertex="1" connectable="0">
          <mxGeometry x="-790.9999999999995" y="872.2388145998445" as="geometry" />
        </mxCell>
        <mxCell id="oA7EZHAGhiuYAOzVzyNf-20" value="1...*" style="edgeLabel;html=1;align=center;verticalAlign=middle;resizable=0;points=[];" parent="1" vertex="1" connectable="0">
          <mxGeometry x="-794.9999999999995" y="828.0035204821977" as="geometry">
            <mxPoint y="1" as="offset" />
          </mxGeometry>
        </mxCell>
        <mxCell id="LF1QeDJF4zM-EZiD3-v1-1" style="edgeStyle=orthogonalEdgeStyle;rounded=0;orthogonalLoop=1;jettySize=auto;html=1;entryX=0.5;entryY=1;entryDx=0;entryDy=0;endArrow=none;endFill=0;" parent="1" source="LF1QeDJF4zM-EZiD3-v1-6" target="LF1QeDJF4zM-EZiD3-v1-14" edge="1">
          <mxGeometry relative="1" as="geometry" />
        </mxCell>
        <mxCell id="LF1QeDJF4zM-EZiD3-v1-2" value="pertenece--&amp;gt;" style="edgeLabel;html=1;align=center;verticalAlign=middle;resizable=0;points=[];rotation=90;" parent="LF1QeDJF4zM-EZiD3-v1-1" vertex="1" connectable="0">
          <mxGeometry x="0.0273" y="3" relative="1" as="geometry">
            <mxPoint x="16" y="3" as="offset" />
          </mxGeometry>
        </mxCell>
        <mxCell id="LF1QeDJF4zM-EZiD3-v1-3" value="1...*" style="edgeLabel;html=1;align=center;verticalAlign=middle;resizable=0;points=[];" parent="LF1QeDJF4zM-EZiD3-v1-1" vertex="1" connectable="0">
          <mxGeometry x="-0.7455" y="-3" relative="1" as="geometry">
            <mxPoint x="9" y="8" as="offset" />
          </mxGeometry>
        </mxCell>
        <mxCell id="LF1QeDJF4zM-EZiD3-v1-4" value="&amp;lt;--tiene" style="edgeLabel;html=1;align=center;verticalAlign=middle;resizable=0;points=[];rotation=90;" parent="LF1QeDJF4zM-EZiD3-v1-1" vertex="1" connectable="0">
          <mxGeometry x="-0.0727" y="-2" relative="1" as="geometry">
            <mxPoint x="-10" y="-9" as="offset" />
          </mxGeometry>
        </mxCell>
        <mxCell id="LF1QeDJF4zM-EZiD3-v1-5" value="1" style="edgeLabel;html=1;align=center;verticalAlign=middle;resizable=0;points=[];" parent="LF1QeDJF4zM-EZiD3-v1-1" vertex="1" connectable="0">
          <mxGeometry x="0.8727" y="-3" relative="1" as="geometry">
            <mxPoint x="-16" as="offset" />
          </mxGeometry>
        </mxCell>
        <mxCell id="LF1QeDJF4zM-EZiD3-v1-6" value="RegistroCita" style="rounded=0;whiteSpace=wrap;html=1;fillColor=#f8cecc;strokeColor=#b85450;" parent="1" vertex="1">
          <mxGeometry x="-7.5" y="597.3400000000001" width="120" height="60" as="geometry" />
        </mxCell>
        <mxCell id="LF1QeDJF4zM-EZiD3-v1-7" value="contiene--&amp;gt;" style="edgeLabel;html=1;align=center;verticalAlign=middle;resizable=0;points=[];" parent="1" vertex="1" connectable="0">
          <mxGeometry x="-76.67909090909097" y="636.3400000000004" as="geometry" />
        </mxCell>
        <mxCell id="LF1QeDJF4zM-EZiD3-v1-8" value="&amp;lt;--pertenece" style="edgeLabel;html=1;align=center;verticalAlign=middle;resizable=0;points=[];" parent="1" vertex="1" connectable="0">
          <mxGeometry x="-87.4972727272725" y="617.3400000000004" as="geometry" />
        </mxCell>
        <mxCell id="LF1QeDJF4zM-EZiD3-v1-9" style="edgeStyle=orthogonalEdgeStyle;rounded=0;orthogonalLoop=1;jettySize=auto;html=1;endArrow=none;endFill=0;" parent="1" source="LF1QeDJF4zM-EZiD3-v1-13" target="LF1QeDJF4zM-EZiD3-v1-6" edge="1">
          <mxGeometry relative="1" as="geometry" />
        </mxCell>
        <mxCell id="LF1QeDJF4zM-EZiD3-v1-10" value="1" style="edgeLabel;html=1;align=center;verticalAlign=middle;resizable=0;points=[];" parent="LF1QeDJF4zM-EZiD3-v1-9" vertex="1" connectable="0">
          <mxGeometry x="-0.9243" y="-5" relative="1" as="geometry">
            <mxPoint y="-13" as="offset" />
          </mxGeometry>
        </mxCell>
        <mxCell id="LF1QeDJF4zM-EZiD3-v1-11" value="1" style="edgeLabel;html=1;align=center;verticalAlign=middle;resizable=0;points=[];" parent="LF1QeDJF4zM-EZiD3-v1-9" vertex="1" connectable="0">
          <mxGeometry x="0.8924" y="-5" relative="1" as="geometry">
            <mxPoint x="-1" y="5" as="offset" />
          </mxGeometry>
        </mxCell>
        <mxCell id="LF1QeDJF4zM-EZiD3-v1-12" style="edgeStyle=orthogonalEdgeStyle;rounded=0;orthogonalLoop=1;jettySize=auto;html=1;endArrow=none;endFill=0;entryX=1;entryY=0.5;entryDx=0;entryDy=0;" parent="1" source="LF1QeDJF4zM-EZiD3-v1-13" target="oA7EZHAGhiuYAOzVzyNf-17" edge="1">
          <mxGeometry relative="1" as="geometry">
            <mxPoint x="-241.9999999999991" y="560" as="targetPoint" />
          </mxGeometry>
        </mxCell>
        <mxCell id="LF1QeDJF4zM-EZiD3-v1-13" value="Turno" style="rounded=0;whiteSpace=wrap;html=1;fillColor=#f8cecc;strokeColor=#b85450;" parent="1" vertex="1">
          <mxGeometry x="-273.5" y="597.34" width="120" height="60" as="geometry" />
        </mxCell>
        <mxCell id="LF1QeDJF4zM-EZiD3-v1-14" value="EstadoCita" style="rounded=0;whiteSpace=wrap;html=1;fillColor=#f8cecc;strokeColor=#b85450;" parent="1" vertex="1">
          <mxGeometry x="-7.5" y="300" width="120" height="60" as="geometry" />
        </mxCell>
        <mxCell id="LF1QeDJF4zM-EZiD3-v1-15" value="incluye--&amp;gt;" style="edgeLabel;html=1;align=center;verticalAlign=middle;resizable=0;points=[];rotation=90;" parent="1" vertex="1" connectable="0">
          <mxGeometry x="-302" y="991.9954545454541" as="geometry" />
        </mxCell>
        <mxCell id="LF1QeDJF4zM-EZiD3-v1-16" value="&amp;lt;--asosia" style="edgeLabel;html=1;align=center;verticalAlign=middle;resizable=0;points=[];rotation=90;" parent="1" vertex="1" connectable="0">
          <mxGeometry x="42.5" y="860.001818181818" as="geometry" />
        </mxCell>
        <mxCell id="LF1QeDJF4zM-EZiD3-v1-17" value="1" style="edgeLabel;html=1;align=center;verticalAlign=middle;resizable=0;points=[];" parent="1" vertex="1" connectable="0">
          <mxGeometry x="-430" y="1167.001818181818" as="geometry">
            <mxPoint x="6" y="1" as="offset" />
          </mxGeometry>
        </mxCell>
        <mxCell id="LF1QeDJF4zM-EZiD3-v1-18" value="1" style="edgeLabel;html=1;align=center;verticalAlign=middle;resizable=0;points=[];" parent="1" vertex="1" connectable="0">
          <mxGeometry x="42.49909090909114" y="667.3400000000005" as="geometry" />
        </mxCell>
        <mxCell id="LF1QeDJF4zM-EZiD3-v1-19" style="edgeStyle=orthogonalEdgeStyle;rounded=0;orthogonalLoop=1;jettySize=auto;html=1;exitX=0.75;exitY=0;exitDx=0;exitDy=0;endArrow=none;endFill=0;" parent="1" source="zj5K5xO4poSrkNLzeTzS-4" target="LF1QeDJF4zM-EZiD3-v1-6" edge="1">
          <mxGeometry relative="1" as="geometry">
            <mxPoint x="52.5" y="777.3400000000001" as="sourcePoint" />
            <Array as="points">
              <mxPoint x="-382" y="1100" />
              <mxPoint x="-312" y="1100" />
              <mxPoint x="-312" y="919" />
              <mxPoint x="52" y="919" />
            </Array>
          </mxGeometry>
        </mxCell>
        <mxCell id="LF1QeDJF4zM-EZiD3-v1-21" style="edgeStyle=orthogonalEdgeStyle;rounded=0;orthogonalLoop=1;jettySize=auto;html=1;endArrow=none;endFill=0;entryX=0.25;entryY=0;entryDx=0;entryDy=0;exitX=1;exitY=0.5;exitDx=0;exitDy=0;" parent="1" source="EFmtBaSsY3daYoN9ahMV-1" target="LF1QeDJF4zM-EZiD3-v1-36" edge="1">
          <mxGeometry relative="1" as="geometry">
            <mxPoint x="-118" y="360" as="targetPoint" />
            <mxPoint x="-92" y="410" as="sourcePoint" />
          </mxGeometry>
        </mxCell>
        <mxCell id="LF1QeDJF4zM-EZiD3-v1-22" value="realiza--&amp;gt;" style="edgeLabel;html=1;align=center;verticalAlign=middle;resizable=0;points=[];" parent="LF1QeDJF4zM-EZiD3-v1-21" vertex="1" connectable="0">
          <mxGeometry x="0.32" y="-3" relative="1" as="geometry">
            <mxPoint x="-107" y="6" as="offset" />
          </mxGeometry>
        </mxCell>
        <mxCell id="LF1QeDJF4zM-EZiD3-v1-23" value="&amp;lt;--asocia" style="edgeLabel;html=1;align=center;verticalAlign=middle;resizable=0;points=[];" parent="LF1QeDJF4zM-EZiD3-v1-21" vertex="1" connectable="0">
          <mxGeometry x="0.0556" y="-1" relative="1" as="geometry">
            <mxPoint x="-57" y="-12" as="offset" />
          </mxGeometry>
        </mxCell>
        <mxCell id="LF1QeDJF4zM-EZiD3-v1-24" value="&lt;br&gt;1" style="edgeLabel;html=1;align=center;verticalAlign=middle;resizable=0;points=[];" parent="LF1QeDJF4zM-EZiD3-v1-21" vertex="1" connectable="0">
          <mxGeometry x="-0.7701" y="-5" relative="1" as="geometry">
            <mxPoint x="-92" y="-25" as="offset" />
          </mxGeometry>
        </mxCell>
        <mxCell id="LF1QeDJF4zM-EZiD3-v1-25" value="1...*" style="edgeLabel;html=1;align=center;verticalAlign=middle;resizable=0;points=[];" parent="LF1QeDJF4zM-EZiD3-v1-21" vertex="1" connectable="0">
          <mxGeometry x="0.8989" relative="1" as="geometry">
            <mxPoint x="-18" y="28" as="offset" />
          </mxGeometry>
        </mxCell>
        <mxCell id="LF1QeDJF4zM-EZiD3-v1-28" value="&amp;lt;--tiene" style="edgeLabel;html=1;align=center;verticalAlign=middle;resizable=0;points=[];rotation=0;" parent="1" vertex="1" connectable="0">
          <mxGeometry x="-500" y="621.343333333334" as="geometry">
            <mxPoint x="20" y="-7" as="offset" />
          </mxGeometry>
        </mxCell>
        <mxCell id="LF1QeDJF4zM-EZiD3-v1-29" value="1" style="edgeLabel;html=1;align=center;verticalAlign=middle;resizable=0;points=[];" parent="1" vertex="1" connectable="0">
          <mxGeometry x="-714.0000000000005" y="779.3400000000005" as="geometry" />
        </mxCell>
        <mxCell id="LF1QeDJF4zM-EZiD3-v1-30" value="0...*" style="edgeLabel;html=1;align=center;verticalAlign=middle;resizable=0;points=[];" parent="1" vertex="1" connectable="0">
          <mxGeometry x="-285.5" y="637.6733333333333" as="geometry">
            <mxPoint x="-3" y="-2" as="offset" />
          </mxGeometry>
        </mxCell>
        <mxCell id="LF1QeDJF4zM-EZiD3-v1-31" style="edgeStyle=orthogonalEdgeStyle;rounded=0;orthogonalLoop=1;jettySize=auto;html=1;exitX=0.25;exitY=1;exitDx=0;exitDy=0;endArrow=none;endFill=0;" parent="1" source="LF1QeDJF4zM-EZiD3-v1-36" target="LF1QeDJF4zM-EZiD3-v1-37" edge="1">
          <mxGeometry relative="1" as="geometry" />
        </mxCell>
        <mxCell id="LF1QeDJF4zM-EZiD3-v1-32" value="0...*" style="edgeLabel;html=1;align=center;verticalAlign=middle;resizable=0;points=[];" parent="LF1QeDJF4zM-EZiD3-v1-31" vertex="1" connectable="0">
          <mxGeometry x="-0.9198" y="-1" relative="1" as="geometry">
            <mxPoint x="-13" y="-2" as="offset" />
          </mxGeometry>
        </mxCell>
        <mxCell id="LF1QeDJF4zM-EZiD3-v1-33" value="1" style="edgeLabel;html=1;align=center;verticalAlign=middle;resizable=0;points=[];" parent="LF1QeDJF4zM-EZiD3-v1-31" vertex="1" connectable="0">
          <mxGeometry x="0.9076" y="-1" relative="1" as="geometry">
            <mxPoint x="7" y="8" as="offset" />
          </mxGeometry>
        </mxCell>
        <mxCell id="LF1QeDJF4zM-EZiD3-v1-34" value="asocia--&amp;gt;" style="edgeLabel;html=1;align=center;verticalAlign=middle;resizable=0;points=[];" parent="LF1QeDJF4zM-EZiD3-v1-31" vertex="1" connectable="0">
          <mxGeometry x="-0.084" y="-3" relative="1" as="geometry">
            <mxPoint x="-7" y="-8" as="offset" />
          </mxGeometry>
        </mxCell>
        <mxCell id="LF1QeDJF4zM-EZiD3-v1-35" value="&amp;lt;--tiene" style="edgeLabel;html=1;align=center;verticalAlign=middle;resizable=0;points=[];" parent="LF1QeDJF4zM-EZiD3-v1-31" vertex="1" connectable="0">
          <mxGeometry x="-0.0623" y="4" relative="1" as="geometry">
            <mxPoint x="-4" y="6" as="offset" />
          </mxGeometry>
        </mxCell>
        <mxCell id="LF1QeDJF4zM-EZiD3-v1-36" value="Cita" style="rounded=0;whiteSpace=wrap;html=1;fillColor=#f8cecc;strokeColor=#b85450;" parent="1" vertex="1">
          <mxGeometry x="-7.5" y="597.34" width="120" height="60" as="geometry" />
        </mxCell>
        <mxCell id="LF1QeDJF4zM-EZiD3-v1-37" value="Cubiculo" style="rounded=0;whiteSpace=wrap;html=1;fillColor=#f8cecc;strokeColor=#B85450;" parent="1" vertex="1">
          <mxGeometry x="-285.5" y="772.3400000000001" width="120" height="60" as="geometry" />
        </mxCell>
        <mxCell id="LF1QeDJF4zM-EZiD3-v1-39" value="0...*" style="edgeLabel;html=1;align=center;verticalAlign=middle;resizable=0;points=[];" parent="1" vertex="1" connectable="0">
          <mxGeometry x="-782.9324275473664" y="502.08709919354123" as="geometry">
            <mxPoint x="-75" y="445" as="offset" />
          </mxGeometry>
        </mxCell>
        <mxCell id="LF1QeDJF4zM-EZiD3-v1-40" value="1" style="edgeLabel;html=1;align=center;verticalAlign=middle;resizable=0;points=[];" parent="1" vertex="1" connectable="0">
          <mxGeometry x="-763" y="589.9991163964352" as="geometry">
            <mxPoint x="-70" y="23" as="offset" />
          </mxGeometry>
        </mxCell>
        <mxCell id="LF1QeDJF4zM-EZiD3-v1-41" value="&amp;lt;--es usado" style="edgeLabel;html=1;align=center;verticalAlign=middle;resizable=0;points=[];rotation=270;" parent="1" vertex="1" connectable="0">
          <mxGeometry x="-971" y="794.68" as="geometry" />
        </mxCell>
        <mxCell id="LF1QeDJF4zM-EZiD3-v1-42" value="tiene--&amp;gt;" style="edgeLabel;html=1;align=center;verticalAlign=middle;resizable=0;points=[];rotation=270;" parent="1" vertex="1" connectable="0">
          <mxGeometry x="-990" y="794.68" as="geometry" />
        </mxCell>
        <mxCell id="aRIuWh4RZ6IZT2sNQx1b-1" value="" style="edgeStyle=orthogonalEdgeStyle;rounded=0;orthogonalLoop=1;jettySize=auto;html=1;endArrow=none;endFill=0;exitX=0;exitY=0.5;exitDx=0;exitDy=0;" parent="1" source="LF1QeDJF4zM-EZiD3-v1-37" target="aRIuWh4RZ6IZT2sNQx1b-3" edge="1">
          <mxGeometry relative="1" as="geometry">
            <mxPoint x="-318.6700000000001" y="862.34" as="sourcePoint" />
          </mxGeometry>
        </mxCell>
        <mxCell id="aRIuWh4RZ6IZT2sNQx1b-2" value="&amp;lt;--tiene" style="edgeLabel;html=1;align=center;verticalAlign=middle;resizable=0;points=[];" parent="aRIuWh4RZ6IZT2sNQx1b-1" vertex="1" connectable="0">
          <mxGeometry x="-0.21" y="3" relative="1" as="geometry">
            <mxPoint x="-26" y="41" as="offset" />
          </mxGeometry>
        </mxCell>
        <mxCell id="aRIuWh4RZ6IZT2sNQx1b-3" value="TipoCubÃ­culo" style="whiteSpace=wrap;html=1;fillColor=#f8cecc;strokeColor=#B85450;rounded=0;" parent="1" vertex="1">
          <mxGeometry x="-545" y="832.3400000000001" width="120" height="60" as="geometry" />
        </mxCell>
        <mxCell id="aRIuWh4RZ6IZT2sNQx1b-4" value="1" style="edgeLabel;html=1;align=center;verticalAlign=middle;resizable=0;points=[];" parent="1" vertex="1" connectable="0">
          <mxGeometry x="-418.66999999999996" y="852.34" as="geometry" />
        </mxCell>
        <mxCell id="aRIuWh4RZ6IZT2sNQx1b-5" value="pertenece--&amp;gt;" style="edgeLabel;html=1;align=center;verticalAlign=middle;resizable=0;points=[];rotation=0;" parent="1" vertex="1" connectable="0">
          <mxGeometry x="-378.66999999999996" y="871.34" as="geometry" />
        </mxCell>
        <mxCell id="aRIuWh4RZ6IZT2sNQx1b-6" value="1...*" style="edgeLabel;html=1;align=center;verticalAlign=middle;resizable=0;points=[];" parent="1" vertex="1" connectable="0">
          <mxGeometry x="-302" y="810" as="geometry" />
        </mxCell>
        <mxCell id="tn6wLKS2mrztc8OkvmIU-1" value="contiene--&amp;gt;" style="edgeLabel;html=1;align=center;verticalAlign=middle;resizable=0;points=[];rotation=0;" parent="1" vertex="1" connectable="0">
          <mxGeometry x="-490" y="642.343333333334" as="geometry">
            <mxPoint x="20" y="-7" as="offset" />
          </mxGeometry>
        </mxCell>
      </root>
    </mxGraphModel>
  </diagram>
  <diagram name="ModeloDominioAnÃ©micoCompleto" id="Yi7B9I-UG1BJaHqy2iXW">
    <mxGraphModel dx="3088" dy="844" grid="1" gridSize="10" guides="1" tooltips="1" connect="1" arrows="1" fold="1" page="1" pageScale="1" pageWidth="827" pageHeight="1169" math="0" shadow="0">
      <root>
        <mxCell id="A3MudGxW9bFrncCyLLQp-0" />
        <mxCell id="A3MudGxW9bFrncCyLLQp-1" parent="A3MudGxW9bFrncCyLLQp-0" />
        <mxCell id="NOpTw5vYNPuRATKghkmg-0" value="Paciente" style="rounded=0;whiteSpace=wrap;html=1;fillColor=default;strokeColor=#000000;gradientColor=none;" parent="A3MudGxW9bFrncCyLLQp-1" vertex="1">
          <mxGeometry x="-842" y="424.68000000000006" width="120" height="60" as="geometry" />
        </mxCell>
        <mxCell id="NOpTw5vYNPuRATKghkmg-1" style="edgeStyle=orthogonalEdgeStyle;rounded=0;orthogonalLoop=1;jettySize=auto;html=1;endArrow=none;endFill=0;" parent="A3MudGxW9bFrncCyLLQp-1" target="NOpTw5vYNPuRATKghkmg-4" edge="1">
          <mxGeometry relative="1" as="geometry">
            <mxPoint x="-780" y="484.67999999999995" as="sourcePoint" />
          </mxGeometry>
        </mxCell>
        <mxCell id="NOpTw5vYNPuRATKghkmg-2" value="1" style="edgeLabel;html=1;align=center;verticalAlign=middle;resizable=0;points=[];" parent="NOpTw5vYNPuRATKghkmg-1" vertex="1" connectable="0">
          <mxGeometry x="0.7633" y="2" relative="1" as="geometry">
            <mxPoint x="3" y="4" as="offset" />
          </mxGeometry>
        </mxCell>
        <mxCell id="NOpTw5vYNPuRATKghkmg-3" value="0...*" style="edgeLabel;html=1;align=center;verticalAlign=middle;resizable=0;points=[];" parent="NOpTw5vYNPuRATKghkmg-1" vertex="1" connectable="0">
          <mxGeometry x="-0.8694" relative="1" as="geometry">
            <mxPoint x="-13" as="offset" />
          </mxGeometry>
        </mxCell>
        <mxCell id="NOpTw5vYNPuRATKghkmg-4" value="TipoDocumento" style="rounded=0;whiteSpace=wrap;html=1;fillColor=default;strokeColor=#000000;gradientColor=none;" parent="A3MudGxW9bFrncCyLLQp-1" vertex="1">
          <mxGeometry x="-824.5" y="597.3399999999999" width="89" height="60" as="geometry" />
        </mxCell>
        <mxCell id="NOpTw5vYNPuRATKghkmg-5" value="tiene--&amp;gt;" style="edgeLabel;html=1;align=center;verticalAlign=middle;resizable=0;points=[];rotation=90;" parent="A3MudGxW9bFrncCyLLQp-1" vertex="1" connectable="0">
          <mxGeometry x="-770" y="544.68" as="geometry" />
        </mxCell>
        <mxCell id="NOpTw5vYNPuRATKghkmg-6" value="&amp;lt;--es usado" style="edgeLabel;html=1;align=center;verticalAlign=middle;resizable=0;points=[];rotation=90;" parent="A3MudGxW9bFrncCyLLQp-1" vertex="1" connectable="0">
          <mxGeometry x="-787" y="542.68" as="geometry" />
        </mxCell>
        <mxCell id="NOpTw5vYNPuRATKghkmg-7" value="0...*" style="edgeLabel;html=1;align=center;verticalAlign=middle;resizable=0;points=[];" parent="A3MudGxW9bFrncCyLLQp-1" vertex="1" connectable="0">
          <mxGeometry x="-782.9330198090142" y="504.12420692902344" as="geometry">
            <mxPoint x="-11" y="782" as="offset" />
          </mxGeometry>
        </mxCell>
        <mxCell id="NOpTw5vYNPuRATKghkmg-8" style="edgeStyle=orthogonalEdgeStyle;rounded=0;orthogonalLoop=1;jettySize=auto;html=1;endArrow=none;endFill=0;entryX=1;entryY=0.5;entryDx=0;entryDy=0;exitX=0;exitY=0.5;exitDx=0;exitDy=0;" parent="A3MudGxW9bFrncCyLLQp-1" source="NOpTw5vYNPuRATKghkmg-17" target="NOpTw5vYNPuRATKghkmg-23" edge="1">
          <mxGeometry relative="1" as="geometry">
            <mxPoint x="-19" y="864.3400000000003" as="targetPoint" />
            <mxPoint x="-22" y="1194.34" as="sourcePoint" />
          </mxGeometry>
        </mxCell>
        <mxCell id="NOpTw5vYNPuRATKghkmg-9" value="asigna--&amp;gt;" style="edgeLabel;html=1;align=center;verticalAlign=middle;resizable=0;points=[];rotation=0;" parent="NOpTw5vYNPuRATKghkmg-8" vertex="1" connectable="0">
          <mxGeometry x="0.6685" y="3" relative="1" as="geometry">
            <mxPoint x="94" y="-20" as="offset" />
          </mxGeometry>
        </mxCell>
        <mxCell id="NOpTw5vYNPuRATKghkmg-10" value="&amp;lt;--pertenece" style="edgeLabel;html=1;align=center;verticalAlign=middle;resizable=0;points=[];rotation=0;" parent="NOpTw5vYNPuRATKghkmg-8" vertex="1" connectable="0">
          <mxGeometry x="0.6898" relative="1" as="geometry">
            <mxPoint x="91" y="12" as="offset" />
          </mxGeometry>
        </mxCell>
        <mxCell id="NOpTw5vYNPuRATKghkmg-11" style="edgeStyle=orthogonalEdgeStyle;rounded=0;orthogonalLoop=1;jettySize=auto;html=1;exitX=0.5;exitY=0;exitDx=0;exitDy=0;endArrow=none;endFill=0;" parent="A3MudGxW9bFrncCyLLQp-1" source="NOpTw5vYNPuRATKghkmg-12" target="NOpTw5vYNPuRATKghkmg-17" edge="1">
          <mxGeometry relative="1" as="geometry" />
        </mxCell>
        <mxCell id="NOpTw5vYNPuRATKghkmg-12" value="Servicio" style="rounded=0;whiteSpace=wrap;html=1;fillColor=default;strokeColor=#000000;gradientColor=none;" parent="A3MudGxW9bFrncCyLLQp-1" vertex="1">
          <mxGeometry x="-472" y="1180.0000000000002" width="120" height="60" as="geometry" />
        </mxCell>
        <mxCell id="NOpTw5vYNPuRATKghkmg-13" value="&amp;lt;--asocia" style="edgeLabel;html=1;align=center;verticalAlign=middle;resizable=0;points=[];rotation=90;" parent="A3MudGxW9bFrncCyLLQp-1" vertex="1" connectable="0">
          <mxGeometry x="-391.83000000000027" y="1080.0000000000002" as="geometry">
            <mxPoint x="1" y="8" as="offset" />
          </mxGeometry>
        </mxCell>
        <mxCell id="NOpTw5vYNPuRATKghkmg-14" value="ofrecen--&amp;gt;" style="edgeLabel;html=1;align=center;verticalAlign=middle;resizable=0;points=[];rotation=90;" parent="A3MudGxW9bFrncCyLLQp-1" vertex="1" connectable="0">
          <mxGeometry x="-412.0004761904763" y="1079.0000000000002" as="geometry">
            <mxPoint x="3.9999999999999996" y="11" as="offset" />
          </mxGeometry>
        </mxCell>
        <mxCell id="NOpTw5vYNPuRATKghkmg-15" value="1...*" style="edgeLabel;html=1;align=center;verticalAlign=middle;resizable=0;points=[];" parent="A3MudGxW9bFrncCyLLQp-1" vertex="1" connectable="0">
          <mxGeometry x="-435.8000000000002" y="1175.3400000000006" as="geometry">
            <mxPoint x="10" y="-6" as="offset" />
          </mxGeometry>
        </mxCell>
        <mxCell id="NOpTw5vYNPuRATKghkmg-16" value="1" style="edgeLabel;html=1;align=center;verticalAlign=middle;resizable=0;points=[];" parent="A3MudGxW9bFrncCyLLQp-1" vertex="1" connectable="0">
          <mxGeometry x="-527" y="1007.0000000000005" as="geometry">
            <mxPoint x="126" y="-4" as="offset" />
          </mxGeometry>
        </mxCell>
        <mxCell id="NOpTw5vYNPuRATKghkmg-17" value="PersonalSeleccionado" style="rounded=0;whiteSpace=wrap;html=1;fillColor=default;strokeColor=#000000;gradientColor=none;" parent="A3MudGxW9bFrncCyLLQp-1" vertex="1">
          <mxGeometry x="-472" y="932.0000000000002" width="120" height="60" as="geometry" />
        </mxCell>
        <mxCell id="NOpTw5vYNPuRATKghkmg-18" value="1...*" style="edgeLabel;html=1;align=center;verticalAlign=middle;resizable=0;points=[];" parent="A3MudGxW9bFrncCyLLQp-1" vertex="1" connectable="0">
          <mxGeometry x="-615" y="952.0000000000005" as="geometry">
            <mxPoint x="126" y="-4" as="offset" />
          </mxGeometry>
        </mxCell>
        <mxCell id="NOpTw5vYNPuRATKghkmg-19" value="1" style="edgeLabel;html=1;align=center;verticalAlign=middle;resizable=0;points=[];" parent="A3MudGxW9bFrncCyLLQp-1" vertex="1" connectable="0">
          <mxGeometry x="-712.0000000000002" y="980.0000000000007" as="geometry">
            <mxPoint x="2" y="-7" as="offset" />
          </mxGeometry>
        </mxCell>
        <mxCell id="NOpTw5vYNPuRATKghkmg-20" style="edgeStyle=orthogonalEdgeStyle;rounded=0;orthogonalLoop=1;jettySize=auto;html=1;exitX=0.5;exitY=1;exitDx=0;exitDy=0;" parent="A3MudGxW9bFrncCyLLQp-1" edge="1">
          <mxGeometry relative="1" as="geometry">
            <mxPoint x="-409" y="1260" as="sourcePoint" />
            <mxPoint x="-409" y="1260" as="targetPoint" />
          </mxGeometry>
        </mxCell>
        <mxCell id="NOpTw5vYNPuRATKghkmg-21" style="edgeStyle=orthogonalEdgeStyle;rounded=0;orthogonalLoop=1;jettySize=auto;html=1;endArrow=none;endFill=0;" parent="A3MudGxW9bFrncCyLLQp-1" source="NOpTw5vYNPuRATKghkmg-23" target="NOpTw5vYNPuRATKghkmg-28" edge="1">
          <mxGeometry relative="1" as="geometry" />
        </mxCell>
        <mxCell id="NOpTw5vYNPuRATKghkmg-22" style="edgeStyle=orthogonalEdgeStyle;rounded=0;orthogonalLoop=1;jettySize=auto;html=1;entryX=0;entryY=0.5;entryDx=0;entryDy=0;endArrow=none;endFill=0;" parent="A3MudGxW9bFrncCyLLQp-1" source="NOpTw5vYNPuRATKghkmg-23" target="NOpTw5vYNPuRATKghkmg-4" edge="1">
          <mxGeometry relative="1" as="geometry">
            <Array as="points">
              <mxPoint x="-982" y="962" />
              <mxPoint x="-982" y="627" />
            </Array>
          </mxGeometry>
        </mxCell>
        <mxCell id="NOpTw5vYNPuRATKghkmg-23" value="Personal" style="rounded=0;whiteSpace=wrap;html=1;fillColor=default;strokeColor=#000000;gradientColor=none;" parent="A3MudGxW9bFrncCyLLQp-1" vertex="1">
          <mxGeometry x="-842" y="932" width="120" height="60" as="geometry" />
        </mxCell>
        <mxCell id="NOpTw5vYNPuRATKghkmg-24" value="1...*" style="edgeLabel;html=1;align=center;verticalAlign=middle;resizable=0;points=[];" parent="A3MudGxW9bFrncCyLLQp-1" vertex="1" connectable="0">
          <mxGeometry x="-769.0000000000002" y="1099.002857142857" as="geometry" />
        </mxCell>
        <mxCell id="NOpTw5vYNPuRATKghkmg-25" value="1" style="edgeLabel;html=1;align=center;verticalAlign=middle;resizable=0;points=[];" parent="A3MudGxW9bFrncCyLLQp-1" vertex="1" connectable="0">
          <mxGeometry x="-791" y="1002.0028571428575" as="geometry" />
        </mxCell>
        <mxCell id="NOpTw5vYNPuRATKghkmg-26" value="asocia--&amp;gt;" style="edgeLabel;html=1;align=center;verticalAlign=middle;resizable=0;points=[];rotation=90;" parent="A3MudGxW9bFrncCyLLQp-1" vertex="1" connectable="0">
          <mxGeometry x="-773" y="1050.2885714285717" as="geometry">
            <mxPoint x="8" y="-3" as="offset" />
          </mxGeometry>
        </mxCell>
        <mxCell id="NOpTw5vYNPuRATKghkmg-27" value="&amp;lt;--pertenece" style="edgeLabel;html=1;align=center;verticalAlign=middle;resizable=0;points=[];rotation=90;" parent="A3MudGxW9bFrncCyLLQp-1" vertex="1" connectable="0">
          <mxGeometry x="-793" y="1047.574285714286" as="geometry">
            <mxPoint x="4" y="-2.9999999999999996" as="offset" />
          </mxGeometry>
        </mxCell>
        <mxCell id="NOpTw5vYNPuRATKghkmg-28" value="PersonalEspecialidad" style="rounded=0;whiteSpace=wrap;html=1;fillColor=default;strokeColor=#000000;gradientColor=none;" parent="A3MudGxW9bFrncCyLLQp-1" vertex="1">
          <mxGeometry x="-842" y="1112.8600000000001" width="120" height="60" as="geometry" />
        </mxCell>
        <mxCell id="NOpTw5vYNPuRATKghkmg-29" style="edgeStyle=orthogonalEdgeStyle;rounded=0;orthogonalLoop=1;jettySize=auto;html=1;endArrow=none;endFill=0;" parent="A3MudGxW9bFrncCyLLQp-1" source="NOpTw5vYNPuRATKghkmg-35" target="NOpTw5vYNPuRATKghkmg-28" edge="1">
          <mxGeometry relative="1" as="geometry" />
        </mxCell>
        <mxCell id="NOpTw5vYNPuRATKghkmg-30" value="1...*" style="edgeLabel;html=1;align=center;verticalAlign=middle;resizable=0;points=[];" parent="NOpTw5vYNPuRATKghkmg-29" vertex="1" connectable="0">
          <mxGeometry x="0.7471" y="-1" relative="1" as="geometry">
            <mxPoint x="12" y="-5" as="offset" />
          </mxGeometry>
        </mxCell>
        <mxCell id="NOpTw5vYNPuRATKghkmg-31" value="&lt;div&gt;&lt;br/&gt;&lt;/div&gt;" style="edgeLabel;html=1;align=center;verticalAlign=middle;resizable=0;points=[];" parent="NOpTw5vYNPuRATKghkmg-29" vertex="1" connectable="0">
          <mxGeometry x="-0.7471" y="3" relative="1" as="geometry">
            <mxPoint x="-5" as="offset" />
          </mxGeometry>
        </mxCell>
        <mxCell id="NOpTw5vYNPuRATKghkmg-32" value="1" style="edgeLabel;html=1;align=center;verticalAlign=middle;resizable=0;points=[];" parent="NOpTw5vYNPuRATKghkmg-29" vertex="1" connectable="0">
          <mxGeometry x="-0.7262" y="-4" relative="1" as="geometry">
            <mxPoint x="-14" as="offset" />
          </mxGeometry>
        </mxCell>
        <mxCell id="NOpTw5vYNPuRATKghkmg-33" value="&amp;lt;--asocia" style="edgeLabel;html=1;align=center;verticalAlign=middle;resizable=0;points=[];rotation=90;" parent="NOpTw5vYNPuRATKghkmg-29" vertex="1" connectable="0">
          <mxGeometry x="0.1515" relative="1" as="geometry">
            <mxPoint x="13" y="1" as="offset" />
          </mxGeometry>
        </mxCell>
        <mxCell id="NOpTw5vYNPuRATKghkmg-34" value="tiene--&amp;gt;" style="edgeLabel;html=1;align=center;verticalAlign=middle;resizable=0;points=[];rotation=90;" parent="NOpTw5vYNPuRATKghkmg-29" vertex="1" connectable="0">
          <mxGeometry x="0.0993" y="1" relative="1" as="geometry">
            <mxPoint x="-8" as="offset" />
          </mxGeometry>
        </mxCell>
        <mxCell id="NOpTw5vYNPuRATKghkmg-35" value="Especialidad" style="rounded=0;whiteSpace=wrap;html=1;fillColor=default;strokeColor=#000000;gradientColor=none;" parent="A3MudGxW9bFrncCyLLQp-1" vertex="1">
          <mxGeometry x="-842" y="1277.8600000000001" width="120" height="60" as="geometry" />
        </mxCell>
        <mxCell id="NOpTw5vYNPuRATKghkmg-36" style="edgeStyle=orthogonalEdgeStyle;rounded=0;orthogonalLoop=1;jettySize=auto;html=1;endArrow=none;endFill=0;exitX=0.5;exitY=0;exitDx=0;exitDy=0;" parent="A3MudGxW9bFrncCyLLQp-1" source="NOpTw5vYNPuRATKghkmg-23" target="NOpTw5vYNPuRATKghkmg-38" edge="1">
          <mxGeometry relative="1" as="geometry">
            <mxPoint x="-782" y="732" as="sourcePoint" />
          </mxGeometry>
        </mxCell>
        <mxCell id="NOpTw5vYNPuRATKghkmg-37" value="1" style="edgeLabel;html=1;align=center;verticalAlign=middle;resizable=0;points=[];" parent="A3MudGxW9bFrncCyLLQp-1" vertex="1" connectable="0">
          <mxGeometry x="-763.0018181818182" y="916.3400000000001" as="geometry">
            <mxPoint x="-12" y="3" as="offset" />
          </mxGeometry>
        </mxCell>
        <mxCell id="NOpTw5vYNPuRATKghkmg-38" value="Agenda" style="rounded=0;whiteSpace=wrap;html=1;fillColor=default;strokeColor=#000000;gradientColor=none;" parent="A3MudGxW9bFrncCyLLQp-1" vertex="1">
          <mxGeometry x="-842" y="760.0000000000002" width="120" height="60" as="geometry" />
        </mxCell>
        <mxCell id="NOpTw5vYNPuRATKghkmg-39" value="pertenece--&amp;gt;" style="edgeLabel;html=1;align=center;verticalAlign=middle;resizable=0;points=[];rotation=90;" parent="A3MudGxW9bFrncCyLLQp-1" vertex="1" connectable="0">
          <mxGeometry x="-773" y="876.0035204821977" as="geometry" />
        </mxCell>
        <mxCell id="NOpTw5vYNPuRATKghkmg-40" value="&amp;lt;--asocia" style="edgeLabel;html=1;align=center;verticalAlign=middle;resizable=0;points=[];rotation=90;" parent="A3MudGxW9bFrncCyLLQp-1" vertex="1" connectable="0">
          <mxGeometry x="-790.9999999999995" y="872.2388145998445" as="geometry" />
        </mxCell>
        <mxCell id="NOpTw5vYNPuRATKghkmg-41" value="1...*" style="edgeLabel;html=1;align=center;verticalAlign=middle;resizable=0;points=[];" parent="A3MudGxW9bFrncCyLLQp-1" vertex="1" connectable="0">
          <mxGeometry x="-794.9999999999995" y="828.0035204821977" as="geometry">
            <mxPoint y="1" as="offset" />
          </mxGeometry>
        </mxCell>
        <mxCell id="NOpTw5vYNPuRATKghkmg-42" style="edgeStyle=orthogonalEdgeStyle;rounded=0;orthogonalLoop=1;jettySize=auto;html=1;entryX=0.5;entryY=1;entryDx=0;entryDy=0;endArrow=none;endFill=0;" parent="A3MudGxW9bFrncCyLLQp-1" source="NOpTw5vYNPuRATKghkmg-47" target="NOpTw5vYNPuRATKghkmg-55" edge="1">
          <mxGeometry relative="1" as="geometry" />
        </mxCell>
        <mxCell id="NOpTw5vYNPuRATKghkmg-43" value="pertenece--&amp;gt;" style="edgeLabel;html=1;align=center;verticalAlign=middle;resizable=0;points=[];rotation=90;" parent="NOpTw5vYNPuRATKghkmg-42" vertex="1" connectable="0">
          <mxGeometry x="0.0273" y="3" relative="1" as="geometry">
            <mxPoint x="16" y="3" as="offset" />
          </mxGeometry>
        </mxCell>
        <mxCell id="NOpTw5vYNPuRATKghkmg-44" value="1...*" style="edgeLabel;html=1;align=center;verticalAlign=middle;resizable=0;points=[];" parent="NOpTw5vYNPuRATKghkmg-42" vertex="1" connectable="0">
          <mxGeometry x="-0.7455" y="-3" relative="1" as="geometry">
            <mxPoint x="9" y="8" as="offset" />
          </mxGeometry>
        </mxCell>
        <mxCell id="NOpTw5vYNPuRATKghkmg-45" value="&amp;lt;--tiene" style="edgeLabel;html=1;align=center;verticalAlign=middle;resizable=0;points=[];rotation=90;" parent="NOpTw5vYNPuRATKghkmg-42" vertex="1" connectable="0">
          <mxGeometry x="-0.0727" y="-2" relative="1" as="geometry">
            <mxPoint x="-10" y="-9" as="offset" />
          </mxGeometry>
        </mxCell>
        <mxCell id="NOpTw5vYNPuRATKghkmg-46" value="1" style="edgeLabel;html=1;align=center;verticalAlign=middle;resizable=0;points=[];" parent="NOpTw5vYNPuRATKghkmg-42" vertex="1" connectable="0">
          <mxGeometry x="0.8727" y="-3" relative="1" as="geometry">
            <mxPoint x="-16" as="offset" />
          </mxGeometry>
        </mxCell>
        <mxCell id="NOpTw5vYNPuRATKghkmg-47" value="RegistroCita" style="rounded=0;whiteSpace=wrap;html=1;fillColor=#f8cecc;strokeColor=#b85450;" parent="A3MudGxW9bFrncCyLLQp-1" vertex="1">
          <mxGeometry x="-7.5" y="597.3400000000001" width="120" height="60" as="geometry" />
        </mxCell>
        <mxCell id="NOpTw5vYNPuRATKghkmg-48" value="contiene--&amp;gt;" style="edgeLabel;html=1;align=center;verticalAlign=middle;resizable=0;points=[];" parent="A3MudGxW9bFrncCyLLQp-1" vertex="1" connectable="0">
          <mxGeometry x="-76.67909090909097" y="636.3400000000004" as="geometry" />
        </mxCell>
        <mxCell id="NOpTw5vYNPuRATKghkmg-49" value="&amp;lt;--pertenece" style="edgeLabel;html=1;align=center;verticalAlign=middle;resizable=0;points=[];" parent="A3MudGxW9bFrncCyLLQp-1" vertex="1" connectable="0">
          <mxGeometry x="-87.4972727272725" y="617.3400000000004" as="geometry" />
        </mxCell>
        <mxCell id="NOpTw5vYNPuRATKghkmg-50" style="edgeStyle=orthogonalEdgeStyle;rounded=0;orthogonalLoop=1;jettySize=auto;html=1;endArrow=none;endFill=0;" parent="A3MudGxW9bFrncCyLLQp-1" source="NOpTw5vYNPuRATKghkmg-54" target="NOpTw5vYNPuRATKghkmg-47" edge="1">
          <mxGeometry relative="1" as="geometry" />
        </mxCell>
        <mxCell id="NOpTw5vYNPuRATKghkmg-51" value="1" style="edgeLabel;html=1;align=center;verticalAlign=middle;resizable=0;points=[];" parent="NOpTw5vYNPuRATKghkmg-50" vertex="1" connectable="0">
          <mxGeometry x="-0.9243" y="-5" relative="1" as="geometry">
            <mxPoint y="-13" as="offset" />
          </mxGeometry>
        </mxCell>
        <mxCell id="NOpTw5vYNPuRATKghkmg-52" value="1" style="edgeLabel;html=1;align=center;verticalAlign=middle;resizable=0;points=[];" parent="NOpTw5vYNPuRATKghkmg-50" vertex="1" connectable="0">
          <mxGeometry x="0.8924" y="-5" relative="1" as="geometry">
            <mxPoint x="-1" y="5" as="offset" />
          </mxGeometry>
        </mxCell>
        <mxCell id="NOpTw5vYNPuRATKghkmg-53" style="edgeStyle=orthogonalEdgeStyle;rounded=0;orthogonalLoop=1;jettySize=auto;html=1;endArrow=none;endFill=0;entryX=1;entryY=0.5;entryDx=0;entryDy=0;" parent="A3MudGxW9bFrncCyLLQp-1" source="NOpTw5vYNPuRATKghkmg-54" target="NOpTw5vYNPuRATKghkmg-38" edge="1">
          <mxGeometry relative="1" as="geometry">
            <mxPoint x="-241.9999999999991" y="560" as="targetPoint" />
          </mxGeometry>
        </mxCell>
        <mxCell id="NOpTw5vYNPuRATKghkmg-54" value="Turno" style="rounded=0;whiteSpace=wrap;html=1;fillColor=default;strokeColor=#000000;gradientColor=none;" parent="A3MudGxW9bFrncCyLLQp-1" vertex="1">
          <mxGeometry x="-273.5" y="597.34" width="120" height="60" as="geometry" />
        </mxCell>
        <mxCell id="NOpTw5vYNPuRATKghkmg-55" value="EstadoCita" style="rounded=0;whiteSpace=wrap;html=1;fillColor=default;strokeColor=#000000;gradientColor=none;" parent="A3MudGxW9bFrncCyLLQp-1" vertex="1">
          <mxGeometry x="-7.5" y="300" width="120" height="60" as="geometry" />
        </mxCell>
        <mxCell id="NOpTw5vYNPuRATKghkmg-56" value="incluye--&amp;gt;" style="edgeLabel;html=1;align=center;verticalAlign=middle;resizable=0;points=[];rotation=90;" parent="A3MudGxW9bFrncCyLLQp-1" vertex="1" connectable="0">
          <mxGeometry x="-302" y="991.9954545454541" as="geometry" />
        </mxCell>
        <mxCell id="NOpTw5vYNPuRATKghkmg-57" value="&amp;lt;--asosia" style="edgeLabel;html=1;align=center;verticalAlign=middle;resizable=0;points=[];rotation=90;" parent="A3MudGxW9bFrncCyLLQp-1" vertex="1" connectable="0">
          <mxGeometry x="42.5" y="860.001818181818" as="geometry" />
        </mxCell>
        <mxCell id="NOpTw5vYNPuRATKghkmg-58" value="1" style="edgeLabel;html=1;align=center;verticalAlign=middle;resizable=0;points=[];" parent="A3MudGxW9bFrncCyLLQp-1" vertex="1" connectable="0">
          <mxGeometry x="-378.5" y="1170.001818181818" as="geometry">
            <mxPoint x="6" y="1" as="offset" />
          </mxGeometry>
        </mxCell>
        <mxCell id="NOpTw5vYNPuRATKghkmg-59" value="1" style="edgeLabel;html=1;align=center;verticalAlign=middle;resizable=0;points=[];" parent="A3MudGxW9bFrncCyLLQp-1" vertex="1" connectable="0">
          <mxGeometry x="42.49909090909114" y="667.3400000000005" as="geometry" />
        </mxCell>
        <mxCell id="NOpTw5vYNPuRATKghkmg-60" style="edgeStyle=orthogonalEdgeStyle;rounded=0;orthogonalLoop=1;jettySize=auto;html=1;exitX=0.75;exitY=0;exitDx=0;exitDy=0;endArrow=none;endFill=0;" parent="A3MudGxW9bFrncCyLLQp-1" source="NOpTw5vYNPuRATKghkmg-12" target="NOpTw5vYNPuRATKghkmg-47" edge="1">
          <mxGeometry relative="1" as="geometry">
            <mxPoint x="52.5" y="777.3400000000001" as="sourcePoint" />
            <Array as="points">
              <mxPoint x="-382" y="1100" />
              <mxPoint x="-312" y="1100" />
              <mxPoint x="-312" y="919" />
              <mxPoint x="52" y="919" />
            </Array>
          </mxGeometry>
        </mxCell>
        <mxCell id="NOpTw5vYNPuRATKghkmg-61" style="edgeStyle=orthogonalEdgeStyle;rounded=0;orthogonalLoop=1;jettySize=auto;html=1;endArrow=none;endFill=0;entryX=0.25;entryY=0;entryDx=0;entryDy=0;exitX=1;exitY=0.5;exitDx=0;exitDy=0;" parent="A3MudGxW9bFrncCyLLQp-1" source="NOpTw5vYNPuRATKghkmg-0" target="NOpTw5vYNPuRATKghkmg-74" edge="1">
          <mxGeometry relative="1" as="geometry">
            <mxPoint x="-118" y="360" as="targetPoint" />
            <mxPoint x="-92" y="410" as="sourcePoint" />
          </mxGeometry>
        </mxCell>
        <mxCell id="NOpTw5vYNPuRATKghkmg-62" value="realiza--&amp;gt;" style="edgeLabel;html=1;align=center;verticalAlign=middle;resizable=0;points=[];" parent="NOpTw5vYNPuRATKghkmg-61" vertex="1" connectable="0">
          <mxGeometry x="0.32" y="-3" relative="1" as="geometry">
            <mxPoint x="-107" y="6" as="offset" />
          </mxGeometry>
        </mxCell>
        <mxCell id="NOpTw5vYNPuRATKghkmg-63" value="&amp;lt;--asocia" style="edgeLabel;html=1;align=center;verticalAlign=middle;resizable=0;points=[];" parent="NOpTw5vYNPuRATKghkmg-61" vertex="1" connectable="0">
          <mxGeometry x="0.0556" y="-1" relative="1" as="geometry">
            <mxPoint x="-57" y="-12" as="offset" />
          </mxGeometry>
        </mxCell>
        <mxCell id="NOpTw5vYNPuRATKghkmg-64" value="&lt;br&gt;1" style="edgeLabel;html=1;align=center;verticalAlign=middle;resizable=0;points=[];" parent="NOpTw5vYNPuRATKghkmg-61" vertex="1" connectable="0">
          <mxGeometry x="-0.7701" y="-5" relative="1" as="geometry">
            <mxPoint x="-92" y="-25" as="offset" />
          </mxGeometry>
        </mxCell>
        <mxCell id="NOpTw5vYNPuRATKghkmg-65" value="1...*" style="edgeLabel;html=1;align=center;verticalAlign=middle;resizable=0;points=[];" parent="NOpTw5vYNPuRATKghkmg-61" vertex="1" connectable="0">
          <mxGeometry x="0.8989" relative="1" as="geometry">
            <mxPoint x="-18" y="28" as="offset" />
          </mxGeometry>
        </mxCell>
        <mxCell id="NOpTw5vYNPuRATKghkmg-66" value="&amp;lt;--tiene" style="edgeLabel;html=1;align=center;verticalAlign=middle;resizable=0;points=[];rotation=0;" parent="A3MudGxW9bFrncCyLLQp-1" vertex="1" connectable="0">
          <mxGeometry x="-500" y="621.343333333334" as="geometry">
            <mxPoint x="20" y="-7" as="offset" />
          </mxGeometry>
        </mxCell>
        <mxCell id="NOpTw5vYNPuRATKghkmg-67" value="1" style="edgeLabel;html=1;align=center;verticalAlign=middle;resizable=0;points=[];" parent="A3MudGxW9bFrncCyLLQp-1" vertex="1" connectable="0">
          <mxGeometry x="-714.0000000000005" y="779.3400000000005" as="geometry" />
        </mxCell>
        <mxCell id="NOpTw5vYNPuRATKghkmg-68" value="0...*" style="edgeLabel;html=1;align=center;verticalAlign=middle;resizable=0;points=[];" parent="A3MudGxW9bFrncCyLLQp-1" vertex="1" connectable="0">
          <mxGeometry x="-285.5" y="637.6733333333333" as="geometry">
            <mxPoint x="-3" y="-2" as="offset" />
          </mxGeometry>
        </mxCell>
        <mxCell id="NOpTw5vYNPuRATKghkmg-69" style="edgeStyle=orthogonalEdgeStyle;rounded=0;orthogonalLoop=1;jettySize=auto;html=1;exitX=0.25;exitY=1;exitDx=0;exitDy=0;endArrow=none;endFill=0;" parent="A3MudGxW9bFrncCyLLQp-1" source="NOpTw5vYNPuRATKghkmg-74" target="NOpTw5vYNPuRATKghkmg-75" edge="1">
          <mxGeometry relative="1" as="geometry" />
        </mxCell>
        <mxCell id="NOpTw5vYNPuRATKghkmg-70" value="0...*" style="edgeLabel;html=1;align=center;verticalAlign=middle;resizable=0;points=[];" parent="NOpTw5vYNPuRATKghkmg-69" vertex="1" connectable="0">
          <mxGeometry x="-0.9198" y="-1" relative="1" as="geometry">
            <mxPoint x="-13" y="-2" as="offset" />
          </mxGeometry>
        </mxCell>
        <mxCell id="NOpTw5vYNPuRATKghkmg-71" value="1" style="edgeLabel;html=1;align=center;verticalAlign=middle;resizable=0;points=[];" parent="NOpTw5vYNPuRATKghkmg-69" vertex="1" connectable="0">
          <mxGeometry x="0.9076" y="-1" relative="1" as="geometry">
            <mxPoint x="7" y="8" as="offset" />
          </mxGeometry>
        </mxCell>
        <mxCell id="NOpTw5vYNPuRATKghkmg-72" value="asocia--&amp;gt;" style="edgeLabel;html=1;align=center;verticalAlign=middle;resizable=0;points=[];" parent="NOpTw5vYNPuRATKghkmg-69" vertex="1" connectable="0">
          <mxGeometry x="-0.084" y="-3" relative="1" as="geometry">
            <mxPoint x="-7" y="-8" as="offset" />
          </mxGeometry>
        </mxCell>
        <mxCell id="NOpTw5vYNPuRATKghkmg-73" value="&amp;lt;--tiene" style="edgeLabel;html=1;align=center;verticalAlign=middle;resizable=0;points=[];" parent="NOpTw5vYNPuRATKghkmg-69" vertex="1" connectable="0">
          <mxGeometry x="-0.0623" y="4" relative="1" as="geometry">
            <mxPoint x="-4" y="6" as="offset" />
          </mxGeometry>
        </mxCell>
        <mxCell id="NOpTw5vYNPuRATKghkmg-74" value="Cita" style="rounded=0;whiteSpace=wrap;html=1;fillColor=default;strokeColor=#000000;gradientColor=none;" parent="A3MudGxW9bFrncCyLLQp-1" vertex="1">
          <mxGeometry x="-7.5" y="597.34" width="120" height="60" as="geometry" />
        </mxCell>
        <mxCell id="NOpTw5vYNPuRATKghkmg-75" value="CubiculoAsignado" style="rounded=0;whiteSpace=wrap;html=1;fillColor=default;strokeColor=#000000;gradientColor=none;" parent="A3MudGxW9bFrncCyLLQp-1" vertex="1">
          <mxGeometry x="-285.5" y="772.3400000000001" width="120" height="60" as="geometry" />
        </mxCell>
        <mxCell id="NOpTw5vYNPuRATKghkmg-76" value="0...*" style="edgeLabel;html=1;align=center;verticalAlign=middle;resizable=0;points=[];" parent="A3MudGxW9bFrncCyLLQp-1" vertex="1" connectable="0">
          <mxGeometry x="-782.9324275473664" y="502.08709919354123" as="geometry">
            <mxPoint x="-75" y="445" as="offset" />
          </mxGeometry>
        </mxCell>
        <mxCell id="NOpTw5vYNPuRATKghkmg-77" value="1" style="edgeLabel;html=1;align=center;verticalAlign=middle;resizable=0;points=[];" parent="A3MudGxW9bFrncCyLLQp-1" vertex="1" connectable="0">
          <mxGeometry x="-763" y="589.9991163964352" as="geometry">
            <mxPoint x="-70" y="23" as="offset" />
          </mxGeometry>
        </mxCell>
        <mxCell id="NOpTw5vYNPuRATKghkmg-78" value="&amp;lt;--es usado" style="edgeLabel;html=1;align=center;verticalAlign=middle;resizable=0;points=[];rotation=270;" parent="A3MudGxW9bFrncCyLLQp-1" vertex="1" connectable="0">
          <mxGeometry x="-971" y="794.68" as="geometry" />
        </mxCell>
        <mxCell id="NOpTw5vYNPuRATKghkmg-79" value="tiene--&amp;gt;" style="edgeLabel;html=1;align=center;verticalAlign=middle;resizable=0;points=[];rotation=270;" parent="A3MudGxW9bFrncCyLLQp-1" vertex="1" connectable="0">
          <mxGeometry x="-990" y="794.68" as="geometry" />
        </mxCell>
        <mxCell id="NOpTw5vYNPuRATKghkmg-80" value="" style="edgeStyle=orthogonalEdgeStyle;rounded=0;orthogonalLoop=1;jettySize=auto;html=1;endArrow=none;endFill=0;exitX=0;exitY=0.5;exitDx=0;exitDy=0;" parent="A3MudGxW9bFrncCyLLQp-1" source="NOpTw5vYNPuRATKghkmg-75" target="NOpTw5vYNPuRATKghkmg-82" edge="1">
          <mxGeometry relative="1" as="geometry">
            <mxPoint x="-318.6700000000001" y="862.34" as="sourcePoint" />
          </mxGeometry>
        </mxCell>
        <mxCell id="NOpTw5vYNPuRATKghkmg-81" value="&amp;lt;--tiene" style="edgeLabel;html=1;align=center;verticalAlign=middle;resizable=0;points=[];" parent="NOpTw5vYNPuRATKghkmg-80" vertex="1" connectable="0">
          <mxGeometry x="-0.21" y="3" relative="1" as="geometry">
            <mxPoint x="-26" y="41" as="offset" />
          </mxGeometry>
        </mxCell>
        <mxCell id="NOpTw5vYNPuRATKghkmg-82" value="TipoCubÃ­culo" style="whiteSpace=wrap;html=1;fillColor=default;strokeColor=#000000;rounded=0;gradientColor=none;" parent="A3MudGxW9bFrncCyLLQp-1" vertex="1">
          <mxGeometry x="-545" y="832.3400000000001" width="120" height="60" as="geometry" />
        </mxCell>
        <mxCell id="NOpTw5vYNPuRATKghkmg-83" value="1" style="edgeLabel;html=1;align=center;verticalAlign=middle;resizable=0;points=[];" parent="A3MudGxW9bFrncCyLLQp-1" vertex="1" connectable="0">
          <mxGeometry x="-418.66999999999996" y="852.34" as="geometry" />
        </mxCell>
        <mxCell id="NOpTw5vYNPuRATKghkmg-84" value="pertenece--&amp;gt;" style="edgeLabel;html=1;align=center;verticalAlign=middle;resizable=0;points=[];rotation=0;" parent="A3MudGxW9bFrncCyLLQp-1" vertex="1" connectable="0">
          <mxGeometry x="-378.66999999999996" y="871.34" as="geometry" />
        </mxCell>
        <mxCell id="NOpTw5vYNPuRATKghkmg-85" value="1...*" style="edgeLabel;html=1;align=center;verticalAlign=middle;resizable=0;points=[];" parent="A3MudGxW9bFrncCyLLQp-1" vertex="1" connectable="0">
          <mxGeometry x="-302" y="810" as="geometry" />
        </mxCell>
        <mxCell id="NOpTw5vYNPuRATKghkmg-86" value="contiene--&amp;gt;" style="edgeLabel;html=1;align=center;verticalAlign=middle;resizable=0;points=[];rotation=0;" parent="A3MudGxW9bFrncCyLLQp-1" vertex="1" connectable="0">
          <mxGeometry x="-490" y="642.343333333334" as="geometry">
            <mxPoint x="20" y="-7" as="offset" />
          </mxGeometry>
        </mxCell>
      </root>
    </mxGraphModel>
  </diagram>
  <diagram id="nJ8zVIROh7Cjo3dMb1Zl" name="4.1 Pacientes - ModeloDominioAnÃ©micoAcotado">
    <mxGraphModel dx="472" dy="828" grid="1" gridSize="10" guides="1" tooltips="1" connect="1" arrows="1" fold="1" page="1" pageScale="1" pageWidth="827" pageHeight="1169" math="0" shadow="0">
      <root>
        <mxCell id="0" />
        <mxCell id="1" parent="0" />
        <mxCell id="Omm5xP2QdiWX2AMHfTGa-2" style="edgeStyle=orthogonalEdgeStyle;rounded=0;orthogonalLoop=1;jettySize=auto;html=1;exitX=1;exitY=0.5;exitDx=0;exitDy=0;" parent="1" source="ZlUQQcu34P4AJtQ19KSp-19" target="Omm5xP2QdiWX2AMHfTGa-1" edge="1">
          <mxGeometry relative="1" as="geometry" />
        </mxCell>
        <mxCell id="ZlUQQcu34P4AJtQ19KSp-19" value="" style="rounded=1;whiteSpace=wrap;html=1;" parent="1" vertex="1">
          <mxGeometry x="35" y="420" width="180" height="340" as="geometry" />
        </mxCell>
        <mxCell id="oRtUchJhbK1gDMUs2fbi-11" value="&lt;span style=&quot;color: rgb(0, 0, 0); font-family: Helvetica; font-size: 27px; font-style: normal; font-variant-ligatures: normal; font-variant-caps: normal; font-weight: 700; letter-spacing: normal; orphans: 2; text-align: center; text-indent: 0px; text-transform: none; widows: 2; word-spacing: 0px; -webkit-text-stroke-width: 0px; background-color: rgb(251, 251, 251); text-decoration-thickness: initial; text-decoration-style: initial; text-decoration-color: initial; float: none; display: inline !important;&quot;&gt;Pacientes&lt;/span&gt;" style="text;whiteSpace=wrap;html=1;" parent="1" vertex="1">
          <mxGeometry x="65" y="427.34000000000003" width="150" height="60" as="geometry" />
        </mxCell>
        <mxCell id="ZlUQQcu34P4AJtQ19KSp-2" value="Paciente" style="rounded=0;whiteSpace=wrap;html=1;fillColor=#fff2cc;strokeColor=#d6b656;" parent="1" vertex="1">
          <mxGeometry x="70" y="487.34000000000003" width="120" height="60" as="geometry" />
        </mxCell>
        <mxCell id="ZlUQQcu34P4AJtQ19KSp-11" style="edgeStyle=orthogonalEdgeStyle;rounded=0;orthogonalLoop=1;jettySize=auto;html=1;endArrow=none;endFill=0;" parent="1" target="ZlUQQcu34P4AJtQ19KSp-14" edge="1">
          <mxGeometry relative="1" as="geometry">
            <mxPoint x="132" y="547.3399999999999" as="sourcePoint" />
          </mxGeometry>
        </mxCell>
        <mxCell id="ZlUQQcu34P4AJtQ19KSp-12" value="1" style="edgeLabel;html=1;align=center;verticalAlign=middle;resizable=0;points=[];" parent="ZlUQQcu34P4AJtQ19KSp-11" vertex="1" connectable="0">
          <mxGeometry x="0.7633" y="2" relative="1" as="geometry">
            <mxPoint x="3" y="4" as="offset" />
          </mxGeometry>
        </mxCell>
        <mxCell id="ZlUQQcu34P4AJtQ19KSp-13" value="0...*" style="edgeLabel;html=1;align=center;verticalAlign=middle;resizable=0;points=[];" parent="ZlUQQcu34P4AJtQ19KSp-11" vertex="1" connectable="0">
          <mxGeometry x="-0.8694" relative="1" as="geometry">
            <mxPoint x="-13" as="offset" />
          </mxGeometry>
        </mxCell>
        <mxCell id="ZlUQQcu34P4AJtQ19KSp-14" value="TipoDocumento" style="rounded=0;whiteSpace=wrap;html=1;fillColor=#e1d5e7;strokeColor=#9673a6;" parent="1" vertex="1">
          <mxGeometry x="87.5" y="659.9999999999999" width="89" height="60" as="geometry" />
        </mxCell>
        <mxCell id="ZlUQQcu34P4AJtQ19KSp-15" value="tiene--&amp;gt;" style="edgeLabel;html=1;align=center;verticalAlign=middle;resizable=0;points=[];rotation=90;" parent="1" vertex="1" connectable="0">
          <mxGeometry x="142" y="607.3399999999999" as="geometry" />
        </mxCell>
        <mxCell id="ZlUQQcu34P4AJtQ19KSp-16" value="&amp;lt;--es usado" style="edgeLabel;html=1;align=center;verticalAlign=middle;resizable=0;points=[];rotation=90;" parent="1" vertex="1" connectable="0">
          <mxGeometry x="125" y="605.3399999999999" as="geometry" />
        </mxCell>
        <mxCell id="ZlUQQcu34P4AJtQ19KSp-18" value="0...*" style="edgeLabel;html=1;align=center;verticalAlign=middle;resizable=0;points=[];" parent="1" vertex="1" connectable="0">
          <mxGeometry x="129.06698019098576" y="566.7842069290234" as="geometry">
            <mxPoint x="-11" y="782" as="offset" />
          </mxGeometry>
        </mxCell>
        <mxCell id="Omm5xP2QdiWX2AMHfTGa-1" value="Comunes" style="ellipse;whiteSpace=wrap;html=1;fillColor=#e1d5e7;strokeColor=#9673a6;" parent="1" vertex="1">
          <mxGeometry x="330" y="550" width="120" height="80" as="geometry" />
        </mxCell>
        <mxCell id="t9N6fxDA85vz4VIgshiz-1" value="&amp;lt;&amp;lt;needed of&amp;gt;&amp;gt;" style="edgeLabel;html=1;align=center;verticalAlign=middle;resizable=0;points=[];labelBackgroundColor=none;" parent="1" vertex="1" connectable="0">
          <mxGeometry x="574" y="471" as="geometry">
            <mxPoint x="-302" y="108" as="offset" />
          </mxGeometry>
        </mxCell>
      </root>
    </mxGraphModel>
  </diagram>
  <diagram id="6bnUewc_t7_sM6yXzL5Q" name="4.2 Servicios - ModeloDominioAnÃ©micoAcotado">
    <mxGraphModel dx="1418" dy="828" grid="1" gridSize="10" guides="1" tooltips="1" connect="1" arrows="1" fold="1" page="1" pageScale="1" pageWidth="827" pageHeight="1169" math="0" shadow="0">
      <root>
        <mxCell id="0" />
        <mxCell id="1" parent="0" />
        <mxCell id="LYLK6u88tS0waRgILg5v-5" style="edgeStyle=orthogonalEdgeStyle;rounded=0;orthogonalLoop=1;jettySize=auto;html=1;exitX=1;exitY=0.5;exitDx=0;exitDy=0;entryX=0;entryY=0.5;entryDx=0;entryDy=0;" parent="1" source="KrUd2WbMNrUi4zRGysEg-1" target="jvDgLkvztK-K86ohI44h-1" edge="1">
          <mxGeometry relative="1" as="geometry" />
        </mxCell>
        <mxCell id="KrUd2WbMNrUi4zRGysEg-1" value="" style="rounded=1;whiteSpace=wrap;html=1;" parent="1" vertex="1">
          <mxGeometry x="310" y="980" width="245" height="650" as="geometry" />
        </mxCell>
        <mxCell id="IbqPEb73HC2l8e5ie5d0-8" style="edgeStyle=orthogonalEdgeStyle;rounded=0;orthogonalLoop=1;jettySize=auto;html=1;endArrow=none;endFill=0;entryX=0.5;entryY=1;entryDx=0;entryDy=0;" parent="1" source="ut33-5MQRbCO5OfySRS2-7" target="veP4FqTp6_T055ehTIgk-1" edge="1">
          <mxGeometry relative="1" as="geometry">
            <mxPoint x="430" y="1150.0000000000005" as="targetPoint" />
          </mxGeometry>
        </mxCell>
        <mxCell id="LYLK6u88tS0waRgILg5v-1" value="asigna--&amp;gt;" style="edgeLabel;html=1;align=center;verticalAlign=middle;resizable=0;points=[];rotation=90;" parent="IbqPEb73HC2l8e5ie5d0-8" vertex="1" connectable="0">
          <mxGeometry x="0.6685" y="3" relative="1" as="geometry">
            <mxPoint x="15" as="offset" />
          </mxGeometry>
        </mxCell>
        <mxCell id="LYLK6u88tS0waRgILg5v-3" value="&amp;lt;--pertenece" style="edgeLabel;html=1;align=center;verticalAlign=middle;resizable=0;points=[];rotation=90;" parent="IbqPEb73HC2l8e5ie5d0-8" vertex="1" connectable="0">
          <mxGeometry x="0.6898" relative="1" as="geometry">
            <mxPoint x="-9" y="21" as="offset" />
          </mxGeometry>
        </mxCell>
        <mxCell id="ut33-5MQRbCO5OfySRS2-7" value="Servicio" style="rounded=0;whiteSpace=wrap;html=1;fillColor=#d5e8d4;strokeColor=#82b366;" parent="1" vertex="1">
          <mxGeometry x="370.0000000000001" y="1430.0000000000002" width="120" height="60" as="geometry" />
        </mxCell>
        <mxCell id="uq8aIBSQvJ10J1pKNCQ0-1" value="Servicios" style="text;html=1;align=center;verticalAlign=middle;resizable=0;points=[];autosize=1;strokeColor=none;fillColor=none;fontStyle=1;fontSize=27;" parent="1" vertex="1">
          <mxGeometry x="363" y="990" width="140" height="50" as="geometry" />
        </mxCell>
        <mxCell id="IbqPEb73HC2l8e5ie5d0-2" value="&amp;lt;--asocia" style="edgeLabel;html=1;align=center;verticalAlign=middle;resizable=0;points=[];rotation=90;" parent="1" vertex="1" connectable="0">
          <mxGeometry x="447.9999999999998" y="1365.0000000000002" as="geometry">
            <mxPoint x="1" y="8" as="offset" />
          </mxGeometry>
        </mxCell>
        <mxCell id="IbqPEb73HC2l8e5ie5d0-3" value="ofrece--&amp;gt;" style="edgeLabel;html=1;align=center;verticalAlign=middle;resizable=0;points=[];rotation=90;" parent="1" vertex="1" connectable="0">
          <mxGeometry x="432.9995238095237" y="1368.0000000000002" as="geometry">
            <mxPoint x="3.9999999999999996" y="11" as="offset" />
          </mxGeometry>
        </mxCell>
        <mxCell id="IbqPEb73HC2l8e5ie5d0-4" value="1...*" style="edgeLabel;html=1;align=center;verticalAlign=middle;resizable=0;points=[];" parent="1" vertex="1" connectable="0">
          <mxGeometry x="432.99999999999983" y="1318.0000000000007" as="geometry">
            <mxPoint x="10" y="-6" as="offset" />
          </mxGeometry>
        </mxCell>
        <mxCell id="IbqPEb73HC2l8e5ie5d0-6" value="1" style="edgeLabel;html=1;align=center;verticalAlign=middle;resizable=0;points=[];" parent="1" vertex="1" connectable="0">
          <mxGeometry x="293" y="1422.0000000000005" as="geometry">
            <mxPoint x="126" y="-4" as="offset" />
          </mxGeometry>
        </mxCell>
        <mxCell id="jvDgLkvztK-K86ohI44h-1" value="Empleados" style="ellipse;whiteSpace=wrap;html=1;fillColor=#D5739D;strokeColor=#996185;gradientColor=#d5739d;" parent="1" vertex="1">
          <mxGeometry x="690" y="1265" width="120" height="80" as="geometry" />
        </mxCell>
        <mxCell id="jvDgLkvztK-K86ohI44h-2" value="&amp;lt;&amp;lt;needed of&amp;gt;&amp;gt;" style="edgeLabel;html=1;align=center;verticalAlign=middle;resizable=0;points=[];labelBackgroundColor=none;" parent="1" vertex="1" connectable="0">
          <mxGeometry x="616" y="1293.996666666667" as="geometry" />
        </mxCell>
        <mxCell id="veP4FqTp6_T055ehTIgk-1" value="Personal" style="rounded=0;whiteSpace=wrap;html=1;fillColor=#D5739D;strokeColor=#996185;gradientColor=#d5739d;" parent="1" vertex="1">
          <mxGeometry x="373" y="1040.0000000000002" width="120" height="60" as="geometry" />
        </mxCell>
        <mxCell id="veP4FqTp6_T055ehTIgk-2" value="PersonalSeleccionado" style="rounded=0;whiteSpace=wrap;html=1;fillColor=#d5e8d4;strokeColor=#82b366;" parent="1" vertex="1">
          <mxGeometry x="370" y="1242.0000000000002" width="120" height="60" as="geometry" />
        </mxCell>
        <mxCell id="LYLK6u88tS0waRgILg5v-2" value="1...*" style="edgeLabel;html=1;align=center;verticalAlign=middle;resizable=0;points=[];" parent="1" vertex="1" connectable="0">
          <mxGeometry x="317" y="1234.0000000000005" as="geometry">
            <mxPoint x="126" y="-4" as="offset" />
          </mxGeometry>
        </mxCell>
        <mxCell id="LYLK6u88tS0waRgILg5v-4" value="1" style="edgeLabel;html=1;align=center;verticalAlign=middle;resizable=0;points=[];" parent="1" vertex="1" connectable="0">
          <mxGeometry x="420.1999999999998" y="1115.3400000000006" as="geometry">
            <mxPoint x="2" y="-7" as="offset" />
          </mxGeometry>
        </mxCell>
        <mxCell id="D422NHukoEG3lA3XNbrL-1" style="edgeStyle=orthogonalEdgeStyle;rounded=0;orthogonalLoop=1;jettySize=auto;html=1;exitX=0.5;exitY=1;exitDx=0;exitDy=0;" parent="1" source="KrUd2WbMNrUi4zRGysEg-1" target="KrUd2WbMNrUi4zRGysEg-1" edge="1">
          <mxGeometry relative="1" as="geometry" />
        </mxCell>
      </root>
    </mxGraphModel>
  </diagram>
  <diagram id="yAby--EENr_P1n6k52kC" name="4.3 Comunes - ModeloDominioAnÃ©micoAcotado">
    <mxGraphModel dx="1418" dy="828" grid="1" gridSize="10" guides="0" tooltips="1" connect="1" arrows="1" fold="1" page="1" pageScale="1" pageWidth="827" pageHeight="1169" math="0" shadow="0">
      <root>
        <mxCell id="0" />
        <mxCell id="1" parent="0" />
        <mxCell id="2JR6n5Y3K-aeIbVoKezx-1" value="" style="rounded=1;whiteSpace=wrap;html=1;" parent="1" vertex="1">
          <mxGeometry x="120" y="1160" width="210" height="180" as="geometry" />
        </mxCell>
        <mxCell id="6VLe1pQ8JzzcM_1vsGcZ-1" value="Comunes" style="text;html=1;align=center;verticalAlign=middle;resizable=0;points=[];autosize=1;strokeColor=none;fillColor=none;fontStyle=1;fontSize=27;" parent="1" vertex="1">
          <mxGeometry x="150" y="1169" width="150" height="50" as="geometry" />
        </mxCell>
        <mxCell id="Wdv775SPD4QQa8B0sGL--7" value="TipoDocumento" style="rounded=0;whiteSpace=wrap;html=1;fillColor=#e1d5e7;strokeColor=#9673a6;" parent="1" vertex="1">
          <mxGeometry x="170.00000000000009" y="1250.0000000000002" width="120" height="60" as="geometry" />
        </mxCell>
      </root>
    </mxGraphModel>
  </diagram>
  <diagram id="CyfAjxZaTGvRQe-gfwwM" name="4.4 Empleados - ModeloDominioAnÃ©micoAcotado">
    <mxGraphModel dx="2245" dy="828" grid="1" gridSize="10" guides="1" tooltips="1" connect="1" arrows="1" fold="1" page="1" pageScale="1" pageWidth="827" pageHeight="1169" math="0" shadow="0">
      <root>
        <mxCell id="0" />
        <mxCell id="1" parent="0" />
        <mxCell id="7CZrjFmUZ570Pla0C_G9-1" value="" style="rounded=1;whiteSpace=wrap;html=1;" parent="1" vertex="1">
          <mxGeometry x="-129" y="460" width="210" height="670" as="geometry" />
        </mxCell>
        <mxCell id="a9nWOFVcOyIJtTiuHq4e-14" style="edgeStyle=orthogonalEdgeStyle;rounded=0;orthogonalLoop=1;jettySize=auto;html=1;endArrow=none;endFill=0;" parent="1" source="MCW9enzqqD5RJ8oihp7F-8" target="a9nWOFVcOyIJtTiuHq4e-6" edge="1">
          <mxGeometry relative="1" as="geometry" />
        </mxCell>
        <mxCell id="MCW9enzqqD5RJ8oihp7F-8" value="Personal" style="rounded=0;whiteSpace=wrap;html=1;fillColor=#D5739D;strokeColor=#000000;gradientColor=#d5739d;" parent="1" vertex="1">
          <mxGeometry x="-75" y="700" width="120" height="60" as="geometry" />
        </mxCell>
        <mxCell id="ZcFVFL3I4r-87yneDtyt-1" value="&lt;span style=&quot;color: rgb(0, 0, 0); font-family: Helvetica; font-size: 27px; font-style: normal; font-variant-ligatures: normal; font-variant-caps: normal; font-weight: 700; letter-spacing: normal; orphans: 2; text-align: center; text-indent: 0px; text-transform: none; widows: 2; word-spacing: 0px; -webkit-text-stroke-width: 0px; background-color: rgb(251, 251, 251); text-decoration-thickness: initial; text-decoration-style: initial; text-decoration-color: initial; float: none; display: inline !important;&quot;&gt;Empleados&lt;br&gt;&lt;br&gt;&lt;/span&gt;" style="text;whiteSpace=wrap;html=1;" parent="1" vertex="1">
          <mxGeometry x="-90" y="468" width="150" height="60" as="geometry" />
        </mxCell>
        <mxCell id="a9nWOFVcOyIJtTiuHq4e-2" value="1...*" style="edgeLabel;html=1;align=center;verticalAlign=middle;resizable=0;points=[];" parent="1" vertex="1" connectable="0">
          <mxGeometry x="-2.0000000000002274" y="867.002857142857" as="geometry" />
        </mxCell>
        <mxCell id="a9nWOFVcOyIJtTiuHq4e-3" value="1" style="edgeLabel;html=1;align=center;verticalAlign=middle;resizable=0;points=[];" parent="1" vertex="1" connectable="0">
          <mxGeometry x="-24" y="770.0028571428575" as="geometry" />
        </mxCell>
        <mxCell id="a9nWOFVcOyIJtTiuHq4e-4" value="asocia--&amp;gt;" style="edgeLabel;html=1;align=center;verticalAlign=middle;resizable=0;points=[];rotation=90;" parent="1" vertex="1" connectable="0">
          <mxGeometry x="-6" y="818.2885714285717" as="geometry">
            <mxPoint x="8" y="-3" as="offset" />
          </mxGeometry>
        </mxCell>
        <mxCell id="a9nWOFVcOyIJtTiuHq4e-5" value="&amp;lt;--pertenece" style="edgeLabel;html=1;align=center;verticalAlign=middle;resizable=0;points=[];rotation=90;" parent="1" vertex="1" connectable="0">
          <mxGeometry x="-26" y="815.5742857142859" as="geometry">
            <mxPoint x="4" y="-2.9999999999999996" as="offset" />
          </mxGeometry>
        </mxCell>
        <mxCell id="a9nWOFVcOyIJtTiuHq4e-6" value="PersonalEspecialidad" style="rounded=0;whiteSpace=wrap;html=1;fillColor=#D5739D;strokeColor=#000000;gradientColor=#d5739d;" parent="1" vertex="1">
          <mxGeometry x="-75" y="880.8600000000001" width="120" height="60" as="geometry" />
        </mxCell>
        <mxCell id="a9nWOFVcOyIJtTiuHq4e-7" style="edgeStyle=orthogonalEdgeStyle;rounded=0;orthogonalLoop=1;jettySize=auto;html=1;endArrow=none;endFill=0;" parent="1" source="a9nWOFVcOyIJtTiuHq4e-13" target="a9nWOFVcOyIJtTiuHq4e-6" edge="1">
          <mxGeometry relative="1" as="geometry" />
        </mxCell>
        <mxCell id="a9nWOFVcOyIJtTiuHq4e-8" value="1...*" style="edgeLabel;html=1;align=center;verticalAlign=middle;resizable=0;points=[];" parent="a9nWOFVcOyIJtTiuHq4e-7" vertex="1" connectable="0">
          <mxGeometry x="0.7471" y="-1" relative="1" as="geometry">
            <mxPoint x="12" y="-5" as="offset" />
          </mxGeometry>
        </mxCell>
        <mxCell id="a9nWOFVcOyIJtTiuHq4e-9" value="&lt;div&gt;&lt;br/&gt;&lt;/div&gt;" style="edgeLabel;html=1;align=center;verticalAlign=middle;resizable=0;points=[];" parent="a9nWOFVcOyIJtTiuHq4e-7" vertex="1" connectable="0">
          <mxGeometry x="-0.7471" y="3" relative="1" as="geometry">
            <mxPoint x="-5" as="offset" />
          </mxGeometry>
        </mxCell>
        <mxCell id="a9nWOFVcOyIJtTiuHq4e-10" value="1" style="edgeLabel;html=1;align=center;verticalAlign=middle;resizable=0;points=[];" parent="a9nWOFVcOyIJtTiuHq4e-7" vertex="1" connectable="0">
          <mxGeometry x="-0.7262" y="-4" relative="1" as="geometry">
            <mxPoint x="-14" as="offset" />
          </mxGeometry>
        </mxCell>
        <mxCell id="a9nWOFVcOyIJtTiuHq4e-11" value="&amp;lt;--asocia" style="edgeLabel;html=1;align=center;verticalAlign=middle;resizable=0;points=[];rotation=90;" parent="a9nWOFVcOyIJtTiuHq4e-7" vertex="1" connectable="0">
          <mxGeometry x="0.1515" relative="1" as="geometry">
            <mxPoint x="13" y="1" as="offset" />
          </mxGeometry>
        </mxCell>
        <mxCell id="a9nWOFVcOyIJtTiuHq4e-12" value="tiene--&amp;gt;" style="edgeLabel;html=1;align=center;verticalAlign=middle;resizable=0;points=[];rotation=90;" parent="a9nWOFVcOyIJtTiuHq4e-7" vertex="1" connectable="0">
          <mxGeometry x="0.0993" y="1" relative="1" as="geometry">
            <mxPoint x="-8" as="offset" />
          </mxGeometry>
        </mxCell>
        <mxCell id="a9nWOFVcOyIJtTiuHq4e-13" value="Especialidad" style="rounded=0;whiteSpace=wrap;html=1;fillColor=#D5739D;strokeColor=#000000;gradientColor=#d5739d;" parent="1" vertex="1">
          <mxGeometry x="-75" y="1045.8600000000001" width="120" height="60" as="geometry" />
        </mxCell>
        <mxCell id="k0Br7D77clJT_kR-pJy1-1" style="edgeStyle=orthogonalEdgeStyle;rounded=0;orthogonalLoop=1;jettySize=auto;html=1;endArrow=none;endFill=0;exitX=0.5;exitY=0;exitDx=0;exitDy=0;" parent="1" source="MCW9enzqqD5RJ8oihp7F-8" target="k0Br7D77clJT_kR-pJy1-3" edge="1">
          <mxGeometry relative="1" as="geometry">
            <mxPoint x="-15" y="500" as="sourcePoint" />
          </mxGeometry>
        </mxCell>
        <mxCell id="k0Br7D77clJT_kR-pJy1-2" value="0...*" style="edgeLabel;html=1;align=center;verticalAlign=middle;resizable=0;points=[];" parent="1" vertex="1" connectable="0">
          <mxGeometry x="9.998181818181763" y="684.3400000000001" as="geometry">
            <mxPoint x="-12" y="3" as="offset" />
          </mxGeometry>
        </mxCell>
        <mxCell id="k0Br7D77clJT_kR-pJy1-3" value="TipoDocumento" style="rounded=0;whiteSpace=wrap;html=1;fillColor=#e1d5e7;strokeColor=#9673a6;" parent="1" vertex="1">
          <mxGeometry x="-75" y="528.0000000000002" width="120" height="60" as="geometry" />
        </mxCell>
        <mxCell id="k0Br7D77clJT_kR-pJy1-4" value="es usado--&amp;gt;" style="edgeLabel;html=1;align=center;verticalAlign=middle;resizable=0;points=[];rotation=90;" parent="1" vertex="1" connectable="0">
          <mxGeometry x="-5" y="641.0035204821977" as="geometry" />
        </mxCell>
        <mxCell id="k0Br7D77clJT_kR-pJy1-5" value="&amp;lt;--tiene" style="edgeLabel;html=1;align=center;verticalAlign=middle;resizable=0;points=[];rotation=90;" parent="1" vertex="1" connectable="0">
          <mxGeometry x="-23.999999999999545" y="640.2388145998445" as="geometry" />
        </mxCell>
        <mxCell id="k0Br7D77clJT_kR-pJy1-6" value="1" style="edgeLabel;html=1;align=center;verticalAlign=middle;resizable=0;points=[];" parent="1" vertex="1" connectable="0">
          <mxGeometry x="-28.999999999999545" y="603.0035204821977" as="geometry">
            <mxPoint x="3" y="-6" as="offset" />
          </mxGeometry>
        </mxCell>
        <mxCell id="7G30ZEeXF1MJ-wtoMZSs-1" style="edgeStyle=orthogonalEdgeStyle;rounded=0;orthogonalLoop=1;jettySize=auto;html=1;exitX=1;exitY=0.5;exitDx=0;exitDy=0;" parent="1" target="7G30ZEeXF1MJ-wtoMZSs-2" edge="1">
          <mxGeometry relative="1" as="geometry">
            <mxPoint x="81" y="810" as="sourcePoint" />
          </mxGeometry>
        </mxCell>
        <mxCell id="7G30ZEeXF1MJ-wtoMZSs-2" value="Comunes" style="ellipse;whiteSpace=wrap;html=1;fillColor=#e1d5e7;strokeColor=#9673a6;" parent="1" vertex="1">
          <mxGeometry x="196" y="770" width="120" height="80" as="geometry" />
        </mxCell>
      </root>
    </mxGraphModel>
  </diagram>
  <diagram id="5-Az4mwmvJ_JnBRP-hqd" name="4.5 Citas - ModeloDominioAnÃ©micoAcotado">
    <mxGraphModel dx="2245" dy="828" grid="1" gridSize="10" guides="1" tooltips="1" connect="1" arrows="1" fold="1" page="1" pageScale="1" pageWidth="827" pageHeight="1169" math="0" shadow="0">
      <root>
        <mxCell id="0" />
        <mxCell id="1" parent="0" />
        <mxCell id="5oVYom5cTx6PpQ-9pEtF-1" style="edgeStyle=orthogonalEdgeStyle;rounded=0;orthogonalLoop=1;jettySize=auto;html=1;" parent="1" source="SHlFs2GADAzjkJAyr2oK-1" target="qKdS6Uf5MWPFrhGvSnP5-1" edge="1">
          <mxGeometry relative="1" as="geometry" />
        </mxCell>
        <mxCell id="5oVYom5cTx6PpQ-9pEtF-2" style="edgeStyle=orthogonalEdgeStyle;rounded=0;orthogonalLoop=1;jettySize=auto;html=1;exitX=1;exitY=0.5;exitDx=0;exitDy=0;" parent="1" source="SHlFs2GADAzjkJAyr2oK-1" target="cDPfIvRJAVddsA3mlf0F-2" edge="1">
          <mxGeometry relative="1" as="geometry" />
        </mxCell>
        <mxCell id="5oVYom5cTx6PpQ-9pEtF-3" style="edgeStyle=orthogonalEdgeStyle;rounded=0;orthogonalLoop=1;jettySize=auto;html=1;exitX=0;exitY=0.5;exitDx=0;exitDy=0;" parent="1" source="SHlFs2GADAzjkJAyr2oK-1" target="cDPfIvRJAVddsA3mlf0F-1" edge="1">
          <mxGeometry relative="1" as="geometry" />
        </mxCell>
        <mxCell id="SHlFs2GADAzjkJAyr2oK-1" value="" style="rounded=1;whiteSpace=wrap;html=1;" parent="1" vertex="1">
          <mxGeometry x="80" y="385" width="740" height="610" as="geometry" />
        </mxCell>
        <mxCell id="kv-cA_QxRGSaDiYLsge_-15" style="edgeStyle=orthogonalEdgeStyle;rounded=0;orthogonalLoop=1;jettySize=auto;html=1;entryX=0.5;entryY=1;entryDx=0;entryDy=0;endArrow=none;endFill=0;" parent="1" source="kv-cA_QxRGSaDiYLsge_-20" target="kv-cA_QxRGSaDiYLsge_-32" edge="1">
          <mxGeometry relative="1" as="geometry" />
        </mxCell>
        <mxCell id="kv-cA_QxRGSaDiYLsge_-16" value="pertenece--&amp;gt;" style="edgeLabel;html=1;align=center;verticalAlign=middle;resizable=0;points=[];rotation=90;" parent="kv-cA_QxRGSaDiYLsge_-15" vertex="1" connectable="0">
          <mxGeometry x="0.0273" y="3" relative="1" as="geometry">
            <mxPoint x="16" y="3" as="offset" />
          </mxGeometry>
        </mxCell>
        <mxCell id="kv-cA_QxRGSaDiYLsge_-17" value="1...*" style="edgeLabel;html=1;align=center;verticalAlign=middle;resizable=0;points=[];" parent="kv-cA_QxRGSaDiYLsge_-15" vertex="1" connectable="0">
          <mxGeometry x="-0.7455" y="-3" relative="1" as="geometry">
            <mxPoint x="9" y="8" as="offset" />
          </mxGeometry>
        </mxCell>
        <mxCell id="kv-cA_QxRGSaDiYLsge_-18" value="&amp;lt;--tiene" style="edgeLabel;html=1;align=center;verticalAlign=middle;resizable=0;points=[];rotation=90;" parent="kv-cA_QxRGSaDiYLsge_-15" vertex="1" connectable="0">
          <mxGeometry x="-0.0727" y="-2" relative="1" as="geometry">
            <mxPoint x="-10" y="-9" as="offset" />
          </mxGeometry>
        </mxCell>
        <mxCell id="kv-cA_QxRGSaDiYLsge_-19" value="1" style="edgeLabel;html=1;align=center;verticalAlign=middle;resizable=0;points=[];" parent="kv-cA_QxRGSaDiYLsge_-15" vertex="1" connectable="0">
          <mxGeometry x="0.8727" y="-3" relative="1" as="geometry">
            <mxPoint x="-16" as="offset" />
          </mxGeometry>
        </mxCell>
        <mxCell id="kv-cA_QxRGSaDiYLsge_-20" value="RegistroCita" style="rounded=0;whiteSpace=wrap;html=1;fillColor=#f8cecc;strokeColor=#b85450;" parent="1" vertex="1">
          <mxGeometry x="620" y="680.0000000000001" width="120" height="60" as="geometry" />
        </mxCell>
        <mxCell id="kv-cA_QxRGSaDiYLsge_-21" value="contiene--&amp;gt;" style="edgeLabel;html=1;align=center;verticalAlign=middle;resizable=0;points=[];" parent="1" vertex="1" connectable="0">
          <mxGeometry x="550.820909090909" y="719.0000000000003" as="geometry" />
        </mxCell>
        <mxCell id="kv-cA_QxRGSaDiYLsge_-22" value="&amp;lt;--pertenece" style="edgeLabel;html=1;align=center;verticalAlign=middle;resizable=0;points=[];" parent="1" vertex="1" connectable="0">
          <mxGeometry x="540.0027272727275" y="700.0000000000003" as="geometry">
            <mxPoint x="-3" y="-3" as="offset" />
          </mxGeometry>
        </mxCell>
        <mxCell id="kv-cA_QxRGSaDiYLsge_-28" style="edgeStyle=orthogonalEdgeStyle;rounded=0;orthogonalLoop=1;jettySize=auto;html=1;endArrow=none;endFill=0;" parent="1" source="kv-cA_QxRGSaDiYLsge_-31" target="kv-cA_QxRGSaDiYLsge_-20" edge="1">
          <mxGeometry relative="1" as="geometry" />
        </mxCell>
        <mxCell id="kv-cA_QxRGSaDiYLsge_-29" value="1" style="edgeLabel;html=1;align=center;verticalAlign=middle;resizable=0;points=[];" parent="kv-cA_QxRGSaDiYLsge_-28" vertex="1" connectable="0">
          <mxGeometry x="-0.9243" y="-5" relative="1" as="geometry">
            <mxPoint y="-13" as="offset" />
          </mxGeometry>
        </mxCell>
        <mxCell id="kv-cA_QxRGSaDiYLsge_-30" value="0...*" style="edgeLabel;html=1;align=center;verticalAlign=middle;resizable=0;points=[];" parent="kv-cA_QxRGSaDiYLsge_-28" vertex="1" connectable="0">
          <mxGeometry x="0.8924" y="-5" relative="1" as="geometry">
            <mxPoint x="-6" y="4" as="offset" />
          </mxGeometry>
        </mxCell>
        <mxCell id="JSOvhgcLvc_9wZdFMguu-6" style="edgeStyle=orthogonalEdgeStyle;rounded=0;orthogonalLoop=1;jettySize=auto;html=1;endArrow=none;endFill=0;" parent="1" source="kv-cA_QxRGSaDiYLsge_-31" target="JSOvhgcLvc_9wZdFMguu-2" edge="1">
          <mxGeometry relative="1" as="geometry" />
        </mxCell>
        <mxCell id="HNKev-C4L_axXbX1pOBI-1" value="contiene--&amp;gt;" style="edgeLabel;html=1;align=center;verticalAlign=middle;resizable=0;points=[];" parent="JSOvhgcLvc_9wZdFMguu-6" vertex="1" connectable="0">
          <mxGeometry x="-0.0323" y="-1" relative="1" as="geometry">
            <mxPoint x="-10" y="9" as="offset" />
          </mxGeometry>
        </mxCell>
        <mxCell id="kv-cA_QxRGSaDiYLsge_-31" value="Turno" style="rounded=0;whiteSpace=wrap;html=1;fillColor=#f8cecc;strokeColor=#b85450;" parent="1" vertex="1">
          <mxGeometry x="354" y="680" width="120" height="60" as="geometry" />
        </mxCell>
        <mxCell id="kv-cA_QxRGSaDiYLsge_-32" value="EstadoCita" style="rounded=0;whiteSpace=wrap;html=1;fillColor=#f8cecc;strokeColor=#b85450;" parent="1" vertex="1">
          <mxGeometry x="620" y="480" width="120" height="60" as="geometry" />
        </mxCell>
        <mxCell id="Aa0WrxtH5N_wUUrBO_Ss-1" value="Citas" style="text;html=1;align=center;verticalAlign=middle;resizable=0;points=[];autosize=1;strokeColor=none;fillColor=none;fontStyle=1;fontSize=27;" parent="1" vertex="1">
          <mxGeometry x="414" y="410" width="90" height="50" as="geometry" />
        </mxCell>
        <mxCell id="LRmCRd4E41Esk59wpNQb-1" value="incluye--&amp;gt;" style="edgeLabel;html=1;align=center;verticalAlign=middle;resizable=0;points=[];rotation=90;" parent="1" vertex="1" connectable="0">
          <mxGeometry x="700" y="790.0054545454541" as="geometry" />
        </mxCell>
        <mxCell id="LRmCRd4E41Esk59wpNQb-2" value="&amp;lt;--asosia" style="edgeLabel;html=1;align=center;verticalAlign=middle;resizable=0;points=[];rotation=90;" parent="1" vertex="1" connectable="0">
          <mxGeometry x="670" y="790.001818181818" as="geometry" />
        </mxCell>
        <mxCell id="LRmCRd4E41Esk59wpNQb-3" value="1" style="edgeLabel;html=1;align=center;verticalAlign=middle;resizable=0;points=[];" parent="1" vertex="1" connectable="0">
          <mxGeometry x="692.2" y="853.001818181818" as="geometry">
            <mxPoint x="-4" y="-5" as="offset" />
          </mxGeometry>
        </mxCell>
        <mxCell id="LRmCRd4E41Esk59wpNQb-4" value="1" style="edgeLabel;html=1;align=center;verticalAlign=middle;resizable=0;points=[];" parent="1" vertex="1" connectable="0">
          <mxGeometry x="669.999090909091" y="750.0000000000005" as="geometry" />
        </mxCell>
        <mxCell id="LRmCRd4E41Esk59wpNQb-9" style="edgeStyle=orthogonalEdgeStyle;rounded=0;orthogonalLoop=1;jettySize=auto;html=1;exitX=0.5;exitY=0;exitDx=0;exitDy=0;endArrow=none;endFill=0;" parent="1" source="LRmCRd4E41Esk59wpNQb-5" target="kv-cA_QxRGSaDiYLsge_-20" edge="1">
          <mxGeometry relative="1" as="geometry" />
        </mxCell>
        <mxCell id="LRmCRd4E41Esk59wpNQb-5" value="Servicio" style="rounded=0;whiteSpace=wrap;html=1;fillColor=#d5e8d4;strokeColor=#82b366;" parent="1" vertex="1">
          <mxGeometry x="620.0000000000001" y="860.0000000000002" width="120" height="60" as="geometry" />
        </mxCell>
        <mxCell id="s4Vqn3a7VbntlvDugKor-1" style="edgeStyle=orthogonalEdgeStyle;rounded=0;orthogonalLoop=1;jettySize=auto;html=1;endArrow=none;endFill=0;entryX=0.25;entryY=0;entryDx=0;entryDy=0;" parent="1" source="s4Vqn3a7VbntlvDugKor-6" target="SokzLnVNWSHibHoHIEor-6" edge="1">
          <mxGeometry relative="1" as="geometry">
            <mxPoint x="354" y="510" as="targetPoint" />
          </mxGeometry>
        </mxCell>
        <mxCell id="s4Vqn3a7VbntlvDugKor-2" value="realiza--&amp;gt;" style="edgeLabel;html=1;align=center;verticalAlign=middle;resizable=0;points=[];" parent="s4Vqn3a7VbntlvDugKor-1" vertex="1" connectable="0">
          <mxGeometry x="0.32" y="-3" relative="1" as="geometry">
            <mxPoint x="-107" y="6" as="offset" />
          </mxGeometry>
        </mxCell>
        <mxCell id="s4Vqn3a7VbntlvDugKor-3" value="&amp;lt;--asocia" style="edgeLabel;html=1;align=center;verticalAlign=middle;resizable=0;points=[];" parent="s4Vqn3a7VbntlvDugKor-1" vertex="1" connectable="0">
          <mxGeometry x="0.0556" y="-1" relative="1" as="geometry">
            <mxPoint x="-57" y="-12" as="offset" />
          </mxGeometry>
        </mxCell>
        <mxCell id="s4Vqn3a7VbntlvDugKor-4" value="&lt;br&gt;1" style="edgeLabel;html=1;align=center;verticalAlign=middle;resizable=0;points=[];" parent="s4Vqn3a7VbntlvDugKor-1" vertex="1" connectable="0">
          <mxGeometry x="-0.7701" y="-5" relative="1" as="geometry">
            <mxPoint x="-35" y="-25" as="offset" />
          </mxGeometry>
        </mxCell>
        <mxCell id="s4Vqn3a7VbntlvDugKor-5" value="1...*" style="edgeLabel;html=1;align=center;verticalAlign=middle;resizable=0;points=[];" parent="s4Vqn3a7VbntlvDugKor-1" vertex="1" connectable="0">
          <mxGeometry x="0.8989" relative="1" as="geometry">
            <mxPoint x="-18" y="6" as="offset" />
          </mxGeometry>
        </mxCell>
        <mxCell id="s4Vqn3a7VbntlvDugKor-6" value="Paciente" style="rounded=0;whiteSpace=wrap;html=1;fillColor=#fff2cc;strokeColor=#d6b656;" parent="1" vertex="1">
          <mxGeometry x="260" y="530" width="120" height="60" as="geometry" />
        </mxCell>
        <mxCell id="cDPfIvRJAVddsA3mlf0F-1" value="Usuarios" style="ellipse;whiteSpace=wrap;html=1;fillColor=#fff2cc;strokeColor=#d6b656;" parent="1" vertex="1">
          <mxGeometry x="-160" y="650" width="120" height="80" as="geometry" />
        </mxCell>
        <mxCell id="cDPfIvRJAVddsA3mlf0F-2" value="Servicios" style="ellipse;whiteSpace=wrap;html=1;fillColor=#d5e8d4;strokeColor=#82b366;" parent="1" vertex="1">
          <mxGeometry x="970" y="650" width="120" height="80" as="geometry" />
        </mxCell>
        <mxCell id="cDPfIvRJAVddsA3mlf0F-3" value="&amp;lt;&amp;lt;needed of&amp;gt;&amp;gt;" style="edgeLabel;html=1;align=center;verticalAlign=middle;resizable=0;points=[];labelBackgroundColor=none;" parent="1" vertex="1" connectable="0">
          <mxGeometry x="20" y="669.9979487179487" as="geometry" />
        </mxCell>
        <mxCell id="cDPfIvRJAVddsA3mlf0F-4" value="&amp;lt;&amp;lt;needed of&amp;gt;&amp;gt;" style="edgeLabel;html=1;align=center;verticalAlign=middle;resizable=0;points=[];labelBackgroundColor=none;" parent="1" vertex="1" connectable="0">
          <mxGeometry x="880" y="675.9966666666668" as="geometry" />
        </mxCell>
        <mxCell id="A36KyUk6ZMb1_F-4T9m3-8" style="edgeStyle=orthogonalEdgeStyle;rounded=0;orthogonalLoop=1;jettySize=auto;html=1;entryX=0.5;entryY=1;entryDx=0;entryDy=0;endArrow=none;endFill=0;" parent="1" source="JSOvhgcLvc_9wZdFMguu-2" target="A36KyUk6ZMb1_F-4T9m3-7" edge="1">
          <mxGeometry relative="1" as="geometry" />
        </mxCell>
        <mxCell id="JSOvhgcLvc_9wZdFMguu-2" value="Agenda" style="rounded=0;whiteSpace=wrap;html=1;fillColor=#F8CECC;strokeColor=#996185;gradientColor=#F8CECC;" parent="1" vertex="1">
          <mxGeometry x="110" y="680" width="120" height="60" as="geometry" />
        </mxCell>
        <mxCell id="JSOvhgcLvc_9wZdFMguu-3" value="&amp;lt;--tiene" style="edgeLabel;html=1;align=center;verticalAlign=middle;resizable=0;points=[];rotation=0;" parent="1" vertex="1" connectable="0">
          <mxGeometry x="266" y="707.003333333334" as="geometry">
            <mxPoint x="20" y="-7" as="offset" />
          </mxGeometry>
        </mxCell>
        <mxCell id="JSOvhgcLvc_9wZdFMguu-5" value="1" style="edgeLabel;html=1;align=center;verticalAlign=middle;resizable=0;points=[];" parent="1" vertex="1" connectable="0">
          <mxGeometry x="235.66999999999956" y="700.0000000000005" as="geometry" />
        </mxCell>
        <mxCell id="2esiBgb_ZFP-3A4btOpE-1" value="1...*" style="edgeLabel;html=1;align=center;verticalAlign=middle;resizable=0;points=[];" parent="1" vertex="1" connectable="0">
          <mxGeometry x="342" y="720.3333333333333" as="geometry">
            <mxPoint x="-3" y="-2" as="offset" />
          </mxGeometry>
        </mxCell>
        <mxCell id="qKdS6Uf5MWPFrhGvSnP5-1" value="Empleados" style="ellipse;whiteSpace=wrap;html=1;fillColor=#D5739D;strokeColor=#996185;gradientColor=#d5739d;" parent="1" vertex="1">
          <mxGeometry x="390" y="1060" width="120" height="80" as="geometry" />
        </mxCell>
        <mxCell id="qKdS6Uf5MWPFrhGvSnP5-4" value="&amp;lt;&amp;lt;needed of&amp;gt;&amp;gt;" style="edgeLabel;html=1;align=center;verticalAlign=middle;resizable=0;points=[];labelBackgroundColor=none;" parent="1" vertex="1" connectable="0">
          <mxGeometry x="440" y="1029.9979487179487" as="geometry" />
        </mxCell>
        <mxCell id="SokzLnVNWSHibHoHIEor-1" style="edgeStyle=orthogonalEdgeStyle;rounded=0;orthogonalLoop=1;jettySize=auto;html=1;exitX=0.25;exitY=1;exitDx=0;exitDy=0;endArrow=none;endFill=0;" parent="1" source="SokzLnVNWSHibHoHIEor-6" target="SokzLnVNWSHibHoHIEor-7" edge="1">
          <mxGeometry relative="1" as="geometry" />
        </mxCell>
        <mxCell id="SokzLnVNWSHibHoHIEor-2" value="0...*" style="edgeLabel;html=1;align=center;verticalAlign=middle;resizable=0;points=[];" parent="SokzLnVNWSHibHoHIEor-1" vertex="1" connectable="0">
          <mxGeometry x="-0.9198" y="-1" relative="1" as="geometry">
            <mxPoint x="-13" y="-2" as="offset" />
          </mxGeometry>
        </mxCell>
        <mxCell id="SokzLnVNWSHibHoHIEor-3" value="1" style="edgeLabel;html=1;align=center;verticalAlign=middle;resizable=0;points=[];" parent="SokzLnVNWSHibHoHIEor-1" vertex="1" connectable="0">
          <mxGeometry x="0.9076" y="-1" relative="1" as="geometry">
            <mxPoint x="7" y="8" as="offset" />
          </mxGeometry>
        </mxCell>
        <mxCell id="SokzLnVNWSHibHoHIEor-4" value="asocia--&amp;gt;" style="edgeLabel;html=1;align=center;verticalAlign=middle;resizable=0;points=[];" parent="SokzLnVNWSHibHoHIEor-1" vertex="1" connectable="0">
          <mxGeometry x="-0.084" y="-3" relative="1" as="geometry">
            <mxPoint x="-7" y="-8" as="offset" />
          </mxGeometry>
        </mxCell>
        <mxCell id="SokzLnVNWSHibHoHIEor-5" value="&amp;lt;--tiene" style="edgeLabel;html=1;align=center;verticalAlign=middle;resizable=0;points=[];" parent="SokzLnVNWSHibHoHIEor-1" vertex="1" connectable="0">
          <mxGeometry x="-0.0623" y="4" relative="1" as="geometry">
            <mxPoint x="-4" y="6" as="offset" />
          </mxGeometry>
        </mxCell>
        <mxCell id="SokzLnVNWSHibHoHIEor-6" value="Cita" style="rounded=0;whiteSpace=wrap;html=1;fillColor=#f8cecc;strokeColor=#b85450;" parent="1" vertex="1">
          <mxGeometry x="620" y="680" width="120" height="60" as="geometry" />
        </mxCell>
        <mxCell id="1lYm0TD_ICntddf-zXDb-2" value="" style="edgeStyle=orthogonalEdgeStyle;rounded=0;orthogonalLoop=1;jettySize=auto;html=1;endArrow=none;endFill=0;" parent="1" source="SokzLnVNWSHibHoHIEor-7" target="1lYm0TD_ICntddf-zXDb-1" edge="1">
          <mxGeometry relative="1" as="geometry" />
        </mxCell>
        <mxCell id="1lYm0TD_ICntddf-zXDb-3" value="&amp;lt;--tiene" style="edgeLabel;html=1;align=center;verticalAlign=middle;resizable=0;points=[];" parent="1lYm0TD_ICntddf-zXDb-2" vertex="1" connectable="0">
          <mxGeometry x="-0.21" y="3" relative="1" as="geometry">
            <mxPoint x="-7" y="-14" as="offset" />
          </mxGeometry>
        </mxCell>
        <mxCell id="SokzLnVNWSHibHoHIEor-7" value="CubÃ­culo" style="rounded=0;whiteSpace=wrap;html=1;fillColor=#f8cecc;strokeColor=#B85450;" parent="1" vertex="1">
          <mxGeometry x="342" y="855.0000000000001" width="120" height="60" as="geometry" />
        </mxCell>
        <mxCell id="1lYm0TD_ICntddf-zXDb-1" value="TipoCubÃ­culo" style="whiteSpace=wrap;html=1;fillColor=#f8cecc;strokeColor=#B85450;rounded=0;" parent="1" vertex="1">
          <mxGeometry x="115.67" y="855.0000000000001" width="120" height="60" as="geometry" />
        </mxCell>
        <mxCell id="1lYm0TD_ICntddf-zXDb-4" value="1" style="edgeLabel;html=1;align=center;verticalAlign=middle;resizable=0;points=[];" parent="1" vertex="1" connectable="0">
          <mxGeometry x="242" y="875" as="geometry" />
        </mxCell>
        <mxCell id="1lYm0TD_ICntddf-zXDb-5" value="pertenece--&amp;gt;" style="edgeLabel;html=1;align=center;verticalAlign=middle;resizable=0;points=[];rotation=0;" parent="1" vertex="1" connectable="0">
          <mxGeometry x="282" y="894" as="geometry" />
        </mxCell>
        <mxCell id="1lYm0TD_ICntddf-zXDb-6" value="1...*" style="edgeLabel;html=1;align=center;verticalAlign=middle;resizable=0;points=[];" parent="1" vertex="1" connectable="0">
          <mxGeometry x="327" y="895" as="geometry" />
        </mxCell>
        <mxCell id="A36KyUk6ZMb1_F-4T9m3-3" value="1" style="edgeLabel;html=1;align=center;verticalAlign=middle;resizable=0;points=[];" parent="1" vertex="1" connectable="0">
          <mxGeometry x="172.99818181818182" y="575.0000000000001" as="geometry">
            <mxPoint x="-12" y="3" as="offset" />
          </mxGeometry>
        </mxCell>
        <mxCell id="A36KyUk6ZMb1_F-4T9m3-5" value="&amp;lt;--asocia" style="edgeLabel;html=1;align=center;verticalAlign=middle;resizable=0;points=[];rotation=270;" parent="1" vertex="1" connectable="0">
          <mxGeometry x="177.00000000000045" y="625.9988145998445" as="geometry" />
        </mxCell>
        <mxCell id="A36KyUk6ZMb1_F-4T9m3-6" value="1...*" style="edgeLabel;html=1;align=center;verticalAlign=middle;resizable=0;points=[];" parent="1" vertex="1" connectable="0">
          <mxGeometry x="186.00000000000045" y="669.9935204821977" as="geometry">
            <mxPoint y="1" as="offset" />
          </mxGeometry>
        </mxCell>
        <mxCell id="A36KyUk6ZMb1_F-4T9m3-7" value="Personal" style="rounded=0;whiteSpace=wrap;html=1;fillColor=#D5739D;strokeColor=#000000;gradientColor=#d5739d;" parent="1" vertex="1">
          <mxGeometry x="110" y="510" width="120" height="60" as="geometry" />
        </mxCell>
        <mxCell id="A36KyUk6ZMb1_F-4T9m3-10" value="&amp;lt;--pertenece" style="edgeLabel;html=1;align=center;verticalAlign=middle;resizable=0;points=[];rotation=90;" parent="1" vertex="1" connectable="0">
          <mxGeometry x="163.00000000000045" y="623.9988145998445" as="geometry" />
        </mxCell>
      </root>
    </mxGraphModel>
  </diagram>
  <diagram id="RL1WSn-YWa655G1d6lK9" name="5.1 Pacientes - Flujo de Eventos">
    <mxGraphModel dx="1418" dy="828" grid="1" gridSize="10" guides="1" tooltips="1" connect="1" arrows="1" fold="1" page="1" pageScale="1" pageWidth="827" pageHeight="1169" math="0" shadow="0">
      <root>
        <mxCell id="0" />
        <mxCell id="1" parent="0" />
        <mxCell id="et34Bsf5uNtBZ8DzeQNb-5" style="edgeStyle=orthogonalEdgeStyle;rounded=0;orthogonalLoop=1;jettySize=auto;html=1;dashed=1;endArrow=none;endFill=0;" parent="1" edge="1">
          <mxGeometry relative="1" as="geometry">
            <mxPoint x="439.5" y="730.5" as="targetPoint" />
            <mxPoint x="439.5" y="469.5" as="sourcePoint" />
          </mxGeometry>
        </mxCell>
        <mxCell id="et34Bsf5uNtBZ8DzeQNb-6" value="&lt;font style=&quot;font-size: 70px;&quot;&gt;2&lt;/font&gt;" style="ellipse;whiteSpace=wrap;html=1;aspect=fixed;fillColor=#000000;fontColor=#FFFFFF;" parent="1" vertex="1">
          <mxGeometry x="360" y="320" width="160" height="160" as="geometry" />
        </mxCell>
        <mxCell id="09VXiqP9Yi40PTYHfnFX-1" value="Paciente" style="rounded=0;whiteSpace=wrap;html=1;fillColor=#fff2cc;strokeColor=#d6b656;" parent="1" vertex="1">
          <mxGeometry x="395.5" y="510" width="89" height="60" as="geometry" />
        </mxCell>
        <mxCell id="wE26VnzRMfu2pDr-LEZH-1" value="&lt;font style=&quot;font-size: 70px;&quot;&gt;1&lt;/font&gt;" style="ellipse;whiteSpace=wrap;html=1;aspect=fixed;fillColor=#000000;fontColor=#FFFFFF;" vertex="1" parent="1">
          <mxGeometry x="110" y="320" width="160" height="160" as="geometry" />
        </mxCell>
        <mxCell id="Tr7kpjCkaANJBZn1-xuH-2" style="edgeStyle=orthogonalEdgeStyle;rounded=0;orthogonalLoop=1;jettySize=auto;html=1;dashed=1;endArrow=none;endFill=0;" edge="1" parent="1">
          <mxGeometry relative="1" as="geometry">
            <mxPoint x="189.5" y="740" as="targetPoint" />
            <mxPoint x="189.5" y="479" as="sourcePoint" />
          </mxGeometry>
        </mxCell>
        <mxCell id="Tr7kpjCkaANJBZn1-xuH-3" style="edgeStyle=orthogonalEdgeStyle;rounded=0;orthogonalLoop=1;jettySize=auto;html=1;dashed=1;dashPattern=8 8;endArrow=classic;endFill=1;strokeColor=#FF66B3;" edge="1" parent="1" source="Tr7kpjCkaANJBZn1-xuH-1" target="09VXiqP9Yi40PTYHfnFX-1">
          <mxGeometry relative="1" as="geometry" />
        </mxCell>
        <mxCell id="Tr7kpjCkaANJBZn1-xuH-1" value="TipoDocumento" style="rounded=0;whiteSpace=wrap;html=1;fillColor=#e1d5e7;strokeColor=#9673a6;" vertex="1" parent="1">
          <mxGeometry x="145.5" y="509.9999999999999" width="89" height="60" as="geometry" />
        </mxCell>
      </root>
    </mxGraphModel>
  </diagram>
  <diagram id="aQuGGw6uYWpPE9i-3yFM" name="5.2 Servicios - Flujo de Eventos">
    <mxGraphModel dx="1418" dy="828" grid="1" gridSize="10" guides="1" tooltips="1" connect="1" arrows="1" fold="1" page="1" pageScale="1" pageWidth="827" pageHeight="1169" math="0" shadow="0">
      <root>
        <mxCell id="0" />
        <mxCell id="1" parent="0" />
        <mxCell id="97jTnKWMsHGO4A7CK2oG-4" style="edgeStyle=orthogonalEdgeStyle;rounded=0;orthogonalLoop=1;jettySize=auto;html=1;dashed=1;endArrow=none;endFill=0;" parent="1" source="IUIczzOVtuRvpzwKc0U8-2" edge="1">
          <mxGeometry relative="1" as="geometry">
            <mxPoint x="459.17" y="1030" as="targetPoint" />
            <mxPoint x="459.17" y="530" as="sourcePoint" />
          </mxGeometry>
        </mxCell>
        <mxCell id="97jTnKWMsHGO4A7CK2oG-5" style="edgeStyle=orthogonalEdgeStyle;rounded=0;orthogonalLoop=1;jettySize=auto;html=1;dashed=1;endArrow=none;endFill=0;" parent="1" source="97jTnKWMsHGO4A7CK2oG-6" edge="1">
          <mxGeometry relative="1" as="geometry">
            <mxPoint x="150" y="1030" as="targetPoint" />
          </mxGeometry>
        </mxCell>
        <mxCell id="97jTnKWMsHGO4A7CK2oG-6" value="&lt;font style=&quot;font-size: 70px;&quot;&gt;1&lt;/font&gt;" style="ellipse;whiteSpace=wrap;html=1;aspect=fixed;fillColor=#000000;fontColor=#FFFFFF;" parent="1" vertex="1">
          <mxGeometry x="70" y="370" width="160" height="160" as="geometry" />
        </mxCell>
        <mxCell id="97jTnKWMsHGO4A7CK2oG-7" value="&lt;font style=&quot;font-size: 70px;&quot;&gt;2&lt;/font&gt;" style="ellipse;whiteSpace=wrap;html=1;aspect=fixed;fillColor=#000000;fontColor=#FFFFFF;" parent="1" vertex="1">
          <mxGeometry x="380" y="370" width="160" height="160" as="geometry" />
        </mxCell>
        <mxCell id="IUIczzOVtuRvpzwKc0U8-4" style="edgeStyle=orthogonalEdgeStyle;rounded=0;orthogonalLoop=1;jettySize=auto;html=1;dashed=1;strokeColor=#00CC66;" edge="1" parent="1" source="IUIczzOVtuRvpzwKc0U8-1" target="IUIczzOVtuRvpzwKc0U8-2">
          <mxGeometry relative="1" as="geometry" />
        </mxCell>
        <mxCell id="IUIczzOVtuRvpzwKc0U8-1" value="Servicio" style="rounded=0;whiteSpace=wrap;html=1;fillColor=#d5e8d4;strokeColor=#82b366;" vertex="1" parent="1">
          <mxGeometry x="90.00000000000011" y="570.0000000000002" width="120" height="60" as="geometry" />
        </mxCell>
        <mxCell id="IUIczzOVtuRvpzwKc0U8-3" value="" style="edgeStyle=orthogonalEdgeStyle;rounded=0;orthogonalLoop=1;jettySize=auto;html=1;dashed=1;endArrow=none;endFill=0;" edge="1" parent="1" source="97jTnKWMsHGO4A7CK2oG-7" target="IUIczzOVtuRvpzwKc0U8-2">
          <mxGeometry relative="1" as="geometry">
            <mxPoint x="459.17" y="1030" as="targetPoint" />
            <mxPoint x="460" y="530" as="sourcePoint" />
          </mxGeometry>
        </mxCell>
        <mxCell id="IUIczzOVtuRvpzwKc0U8-2" value="PersonalSeleccionado" style="rounded=0;whiteSpace=wrap;html=1;fillColor=#d5e8d4;strokeColor=#82b366;" vertex="1" parent="1">
          <mxGeometry x="400" y="570.0000000000002" width="120" height="60" as="geometry" />
        </mxCell>
        <mxCell id="cQEX0pfvBrVErF4z1V51-2" style="edgeStyle=orthogonalEdgeStyle;rounded=0;orthogonalLoop=1;jettySize=auto;html=1;entryX=0;entryY=0.75;entryDx=0;entryDy=0;dashed=1;" edge="1" parent="1" source="cQEX0pfvBrVErF4z1V51-1" target="IUIczzOVtuRvpzwKc0U8-2">
          <mxGeometry relative="1" as="geometry" />
        </mxCell>
        <mxCell id="cQEX0pfvBrVErF4z1V51-1" value="Personal" style="rounded=0;whiteSpace=wrap;html=1;fillColor=#D5739D;strokeColor=#996185;gradientColor=#d5739d;" vertex="1" parent="1">
          <mxGeometry x="90" y="670.0000000000002" width="120" height="60" as="geometry" />
        </mxCell>
      </root>
    </mxGraphModel>
  </diagram>
  <diagram id="msXqrtVY2NFPRUgk0rMD" name="5.3 Comunes - Flujo de Eventos">
    <mxGraphModel dx="1418" dy="828" grid="1" gridSize="10" guides="1" tooltips="1" connect="1" arrows="1" fold="1" page="1" pageScale="1" pageWidth="827" pageHeight="1169" math="0" shadow="0">
      <root>
        <mxCell id="0" />
        <mxCell id="1" parent="0" />
        <mxCell id="uEWEM7rcROVt-1j0AGKR-5" value="&lt;font style=&quot;font-size: 70px;&quot;&gt;1&lt;/font&gt;" style="ellipse;whiteSpace=wrap;html=1;aspect=fixed;fillColor=#000000;fontColor=#FFFFFF;" parent="1" vertex="1">
          <mxGeometry x="70" y="370" width="160" height="160" as="geometry" />
        </mxCell>
        <mxCell id="Ohh_g5Ypl-5EVBSAwa_y-1" value="" style="edgeStyle=orthogonalEdgeStyle;rounded=0;orthogonalLoop=1;jettySize=auto;html=1;dashed=1;endArrow=none;endFill=0;" parent="1" source="uEWEM7rcROVt-1j0AGKR-5" edge="1">
          <mxGeometry relative="1" as="geometry">
            <mxPoint x="150" y="760" as="targetPoint" />
            <mxPoint x="150" y="530" as="sourcePoint" />
          </mxGeometry>
        </mxCell>
        <mxCell id="eIp_fnhsBZqA4SzxTV-N-1" value="TipoDocumento" style="rounded=0;whiteSpace=wrap;html=1;fillColor=#e1d5e7;strokeColor=#9673a6;" parent="1" vertex="1">
          <mxGeometry x="105.5" y="569.9999999999999" width="89" height="60" as="geometry" />
        </mxCell>
      </root>
    </mxGraphModel>
  </diagram>
  <diagram id="KqyYWS9wWyi4cOuIur1B" name="5.4 Empleados - Flujo de Eventos">
    <mxGraphModel dx="1418" dy="828" grid="1" gridSize="10" guides="1" tooltips="1" connect="1" arrows="1" fold="1" page="1" pageScale="1" pageWidth="827" pageHeight="1169" math="0" shadow="0">
      <root>
        <mxCell id="0" />
        <mxCell id="1" parent="0" />
        <mxCell id="RjyLW_SuhwViVd022Hmo-4" style="edgeStyle=orthogonalEdgeStyle;rounded=0;orthogonalLoop=1;jettySize=auto;html=1;dashed=1;endArrow=none;endFill=0;" parent="1" edge="1" source="o4NTZrjfCtJd05LXMqcW-1">
          <mxGeometry relative="1" as="geometry">
            <mxPoint x="459.17" y="1030" as="targetPoint" />
            <mxPoint x="459.17" y="530" as="sourcePoint" />
          </mxGeometry>
        </mxCell>
        <mxCell id="RjyLW_SuhwViVd022Hmo-5" style="edgeStyle=orthogonalEdgeStyle;rounded=0;orthogonalLoop=1;jettySize=auto;html=1;dashed=1;endArrow=none;endFill=0;" parent="1" edge="1">
          <mxGeometry relative="1" as="geometry">
            <mxPoint x="150" y="1030" as="targetPoint" />
            <mxPoint x="150" y="630" as="sourcePoint" />
          </mxGeometry>
        </mxCell>
        <mxCell id="RjyLW_SuhwViVd022Hmo-6" value="&lt;font style=&quot;font-size: 70px;&quot;&gt;1&lt;/font&gt;" style="ellipse;whiteSpace=wrap;html=1;aspect=fixed;fillColor=#000000;fontColor=#FFFFFF;" parent="1" vertex="1">
          <mxGeometry x="70" y="370" width="160" height="160" as="geometry" />
        </mxCell>
        <mxCell id="RjyLW_SuhwViVd022Hmo-7" value="&lt;font style=&quot;font-size: 70px;&quot;&gt;2&lt;/font&gt;" style="ellipse;whiteSpace=wrap;html=1;aspect=fixed;fillColor=#000000;fontColor=#FFFFFF;" parent="1" vertex="1">
          <mxGeometry x="380" y="370" width="160" height="160" as="geometry" />
        </mxCell>
        <mxCell id="RjyLW_SuhwViVd022Hmo-8" value="&lt;font style=&quot;font-size: 70px;&quot;&gt;3&lt;/font&gt;" style="ellipse;whiteSpace=wrap;html=1;aspect=fixed;fillColor=#000000;fontColor=#FFFFFF;" parent="1" vertex="1">
          <mxGeometry x="670" y="370" width="160" height="160" as="geometry" />
        </mxCell>
        <mxCell id="RfgCZGp86Vgr-0-e8g7u-5" value="" style="edgeStyle=orthogonalEdgeStyle;rounded=0;orthogonalLoop=1;jettySize=auto;html=1;dashed=1;endArrow=none;endFill=0;" parent="1" source="RjyLW_SuhwViVd022Hmo-8" edge="1">
          <mxGeometry relative="1" as="geometry">
            <mxPoint x="750" y="1030" as="targetPoint" />
            <mxPoint x="750" y="630" as="sourcePoint" />
            <Array as="points">
              <mxPoint x="750" y="830" />
              <mxPoint x="751" y="830" />
            </Array>
          </mxGeometry>
        </mxCell>
        <mxCell id="anmlM9jtxzy8R-vufmOn-4" value="" style="edgeStyle=orthogonalEdgeStyle;rounded=0;orthogonalLoop=1;jettySize=auto;html=1;dashed=1;endArrow=none;endFill=0;" parent="1" source="RjyLW_SuhwViVd022Hmo-6" edge="1">
          <mxGeometry relative="1" as="geometry">
            <mxPoint x="150" y="570" as="targetPoint" />
            <mxPoint x="150" y="530" as="sourcePoint" />
          </mxGeometry>
        </mxCell>
        <mxCell id="o4NTZrjfCtJd05LXMqcW-2" value="PersonalEspecialidad" style="rounded=0;whiteSpace=wrap;html=1;fillColor=#D5739D;strokeColor=#000000;gradientColor=#d5739d;" vertex="1" parent="1">
          <mxGeometry x="690" y="610.0000000000001" width="120" height="60" as="geometry" />
        </mxCell>
        <mxCell id="o4NTZrjfCtJd05LXMqcW-6" style="edgeStyle=orthogonalEdgeStyle;rounded=0;orthogonalLoop=1;jettySize=auto;html=1;entryX=0;entryY=0.75;entryDx=0;entryDy=0;dashed=1;strokeColor=#00CC00;" edge="1" parent="1" source="o4NTZrjfCtJd05LXMqcW-3" target="o4NTZrjfCtJd05LXMqcW-1">
          <mxGeometry relative="1" as="geometry" />
        </mxCell>
        <mxCell id="o4NTZrjfCtJd05LXMqcW-3" value="Especialidad" style="rounded=0;whiteSpace=wrap;html=1;fillColor=#D5739D;strokeColor=#000000;gradientColor=#d5739d;" vertex="1" parent="1">
          <mxGeometry x="90" y="680.0000000000001" width="120" height="60" as="geometry" />
        </mxCell>
        <mxCell id="o4NTZrjfCtJd05LXMqcW-7" style="edgeStyle=orthogonalEdgeStyle;rounded=0;orthogonalLoop=1;jettySize=auto;html=1;entryX=0;entryY=0.5;entryDx=0;entryDy=0;dashed=1;strokeColor=#0000CC;" edge="1" parent="1" source="o4NTZrjfCtJd05LXMqcW-4" target="o4NTZrjfCtJd05LXMqcW-1">
          <mxGeometry relative="1" as="geometry" />
        </mxCell>
        <mxCell id="o4NTZrjfCtJd05LXMqcW-4" value="TipoDocumento" style="rounded=0;whiteSpace=wrap;html=1;fillColor=#e1d5e7;strokeColor=#9673a6;" vertex="1" parent="1">
          <mxGeometry x="90" y="570.0000000000002" width="120" height="60" as="geometry" />
        </mxCell>
        <mxCell id="o4NTZrjfCtJd05LXMqcW-5" value="" style="edgeStyle=orthogonalEdgeStyle;rounded=0;orthogonalLoop=1;jettySize=auto;html=1;dashed=1;endArrow=none;endFill=0;" edge="1" parent="1" target="o4NTZrjfCtJd05LXMqcW-1">
          <mxGeometry relative="1" as="geometry">
            <mxPoint x="459.17" y="1030" as="targetPoint" />
            <mxPoint x="459.17" y="530" as="sourcePoint" />
          </mxGeometry>
        </mxCell>
        <mxCell id="o4NTZrjfCtJd05LXMqcW-8" style="edgeStyle=orthogonalEdgeStyle;rounded=0;orthogonalLoop=1;jettySize=auto;html=1;dashed=1;" edge="1" parent="1" source="o4NTZrjfCtJd05LXMqcW-1" target="o4NTZrjfCtJd05LXMqcW-2">
          <mxGeometry relative="1" as="geometry" />
        </mxCell>
        <mxCell id="o4NTZrjfCtJd05LXMqcW-1" value="Personal" style="rounded=0;whiteSpace=wrap;html=1;fillColor=#D5739D;strokeColor=#000000;gradientColor=#d5739d;" vertex="1" parent="1">
          <mxGeometry x="400" y="610" width="120" height="60" as="geometry" />
        </mxCell>
      </root>
    </mxGraphModel>
  </diagram>
  <diagram id="ZRk0EYAmDfXDKWfK9mcm" name="5.5 Citas - Flujo de Eventos">
    <mxGraphModel dx="2026" dy="1183" grid="1" gridSize="10" guides="1" tooltips="1" connect="1" arrows="1" fold="1" page="1" pageScale="1" pageWidth="827" pageHeight="1169" math="0" shadow="0">
      <root>
        <mxCell id="0" />
        <mxCell id="1" parent="0" />
        <mxCell id="-KlykneiWxSVHsv4jC8y-4" style="edgeStyle=orthogonalEdgeStyle;rounded=0;orthogonalLoop=1;jettySize=auto;html=1;dashed=1;endArrow=none;endFill=0;" parent="1" source="c4wT1sL5N_W0RTFc21dz-5" edge="1">
          <mxGeometry relative="1" as="geometry">
            <mxPoint x="459.17" y="1030" as="targetPoint" />
            <mxPoint x="459.17" y="530" as="sourcePoint" />
          </mxGeometry>
        </mxCell>
        <mxCell id="-KlykneiWxSVHsv4jC8y-5" style="edgeStyle=orthogonalEdgeStyle;rounded=0;orthogonalLoop=1;jettySize=auto;html=1;dashed=1;endArrow=none;endFill=0;" parent="1" source="-KlykneiWxSVHsv4jC8y-6" edge="1">
          <mxGeometry relative="1" as="geometry">
            <mxPoint x="150" y="1170" as="targetPoint" />
          </mxGeometry>
        </mxCell>
        <mxCell id="-KlykneiWxSVHsv4jC8y-6" value="&lt;font style=&quot;font-size: 70px;&quot;&gt;1&lt;/font&gt;" style="ellipse;whiteSpace=wrap;html=1;aspect=fixed;fillColor=#000000;fontColor=#FFFFFF;" parent="1" vertex="1">
          <mxGeometry x="70" y="370" width="160" height="160" as="geometry" />
        </mxCell>
        <mxCell id="-KlykneiWxSVHsv4jC8y-7" value="&lt;font style=&quot;font-size: 70px;&quot;&gt;2&lt;/font&gt;" style="ellipse;whiteSpace=wrap;html=1;aspect=fixed;fillColor=#000000;fontColor=#FFFFFF;" parent="1" vertex="1">
          <mxGeometry x="380" y="370" width="160" height="160" as="geometry" />
        </mxCell>
        <mxCell id="-KlykneiWxSVHsv4jC8y-8" value="&lt;font style=&quot;font-size: 70px;&quot;&gt;3&lt;/font&gt;" style="ellipse;whiteSpace=wrap;html=1;aspect=fixed;fillColor=#000000;fontColor=#FFFFFF;" parent="1" vertex="1">
          <mxGeometry x="670" y="370" width="160" height="160" as="geometry" />
        </mxCell>
        <mxCell id="-KlykneiWxSVHsv4jC8y-9" value="&lt;font style=&quot;font-size: 70px;&quot;&gt;4&lt;/font&gt;" style="ellipse;whiteSpace=wrap;html=1;aspect=fixed;fillColor=#000000;fontColor=#FFFFFF;" parent="1" vertex="1">
          <mxGeometry x="940" y="370" width="160" height="160" as="geometry" />
        </mxCell>
        <mxCell id="-KlykneiWxSVHsv4jC8y-16" value="" style="edgeStyle=orthogonalEdgeStyle;rounded=0;orthogonalLoop=1;jettySize=auto;html=1;dashed=1;endArrow=none;endFill=0;" parent="1" edge="1">
          <mxGeometry relative="1" as="geometry">
            <mxPoint x="750" y="1000" as="targetPoint" />
            <mxPoint x="749.17" y="530" as="sourcePoint" />
          </mxGeometry>
        </mxCell>
        <mxCell id="b-70qVYByBTI8gKiSj1I-2" style="edgeStyle=orthogonalEdgeStyle;rounded=0;orthogonalLoop=1;jettySize=auto;html=1;entryX=0.25;entryY=1;entryDx=0;entryDy=0;dashed=1;" edge="1" parent="1" source="c4wT1sL5N_W0RTFc21dz-2" target="lnU0kiS0dHdqZ7TzeEBg-10">
          <mxGeometry relative="1" as="geometry" />
        </mxCell>
        <mxCell id="c4wT1sL5N_W0RTFc21dz-2" value="EstadoCita" style="rounded=0;whiteSpace=wrap;html=1;fillColor=#f8cecc;strokeColor=#b85450;" parent="1" vertex="1">
          <mxGeometry x="90" y="1038" width="120" height="60" as="geometry" />
        </mxCell>
        <mxCell id="lnU0kiS0dHdqZ7TzeEBg-6" style="edgeStyle=orthogonalEdgeStyle;rounded=0;orthogonalLoop=1;jettySize=auto;html=1;entryX=0.25;entryY=1;entryDx=0;entryDy=0;dashed=1;strokeColor=#80FF00;" parent="1" source="c4wT1sL5N_W0RTFc21dz-3" target="lnU0kiS0dHdqZ7TzeEBg-11" edge="1">
          <mxGeometry relative="1" as="geometry">
            <mxPoint x="720" y="840" as="targetPoint" />
          </mxGeometry>
        </mxCell>
        <mxCell id="c4wT1sL5N_W0RTFc21dz-3" value="Servicio" style="rounded=0;whiteSpace=wrap;html=1;fillColor=#d5e8d4;strokeColor=#82b366;" parent="1" vertex="1">
          <mxGeometry x="90.00000000000011" y="830.0000000000002" width="120" height="60" as="geometry" />
        </mxCell>
        <mxCell id="lnU0kiS0dHdqZ7TzeEBg-5" style="edgeStyle=orthogonalEdgeStyle;rounded=0;orthogonalLoop=1;jettySize=auto;html=1;entryX=0.25;entryY=0;entryDx=0;entryDy=0;dashed=1;strokeColor=#99FF33;" parent="1" source="c4wT1sL5N_W0RTFc21dz-4" edge="1">
          <mxGeometry relative="1" as="geometry">
            <mxPoint x="720" y="780" as="targetPoint" />
          </mxGeometry>
        </mxCell>
        <mxCell id="c4wT1sL5N_W0RTFc21dz-4" value="Paciente" style="rounded=0;whiteSpace=wrap;html=1;fillColor=#fff2cc;strokeColor=#d6b656;" parent="1" vertex="1">
          <mxGeometry x="90" y="585" width="120" height="60" as="geometry" />
        </mxCell>
        <mxCell id="lnU0kiS0dHdqZ7TzeEBg-8" style="edgeStyle=orthogonalEdgeStyle;rounded=0;orthogonalLoop=1;jettySize=auto;html=1;entryX=0.5;entryY=1;entryDx=0;entryDy=0;dashed=1;strokeColor=#80FF00;" parent="1" source="c4wT1sL5N_W0RTFc21dz-7" edge="1">
          <mxGeometry relative="1" as="geometry">
            <mxPoint x="750" y="840" as="targetPoint" />
          </mxGeometry>
        </mxCell>
        <mxCell id="c4wT1sL5N_W0RTFc21dz-7" value="CubÃ­culo" style="rounded=0;whiteSpace=wrap;html=1;fillColor=#f8cecc;strokeColor=#B85450;" parent="1" vertex="1">
          <mxGeometry x="400" y="930.0000000000001" width="120" height="60" as="geometry" />
        </mxCell>
        <mxCell id="lnU0kiS0dHdqZ7TzeEBg-4" style="edgeStyle=orthogonalEdgeStyle;rounded=0;orthogonalLoop=1;jettySize=auto;html=1;exitX=1;exitY=0.5;exitDx=0;exitDy=0;dashed=1;strokeColor=#CC0066;" parent="1" source="c4wT1sL5N_W0RTFc21dz-8" target="c4wT1sL5N_W0RTFc21dz-7" edge="1">
          <mxGeometry relative="1" as="geometry" />
        </mxCell>
        <mxCell id="c4wT1sL5N_W0RTFc21dz-8" value="TipoCubÃ­culo" style="whiteSpace=wrap;html=1;fillColor=#f8cecc;strokeColor=#B85450;rounded=0;" parent="1" vertex="1">
          <mxGeometry x="90" y="930.0000000000001" width="120" height="60" as="geometry" />
        </mxCell>
        <mxCell id="lnU0kiS0dHdqZ7TzeEBg-3" style="edgeStyle=orthogonalEdgeStyle;rounded=0;orthogonalLoop=1;jettySize=auto;html=1;entryX=0;entryY=0.5;entryDx=0;entryDy=0;dashed=1;strokeColor=#CC99FF;" parent="1" source="c4wT1sL5N_W0RTFc21dz-9" target="c4wT1sL5N_W0RTFc21dz-5" edge="1">
          <mxGeometry relative="1" as="geometry" />
        </mxCell>
        <mxCell id="c4wT1sL5N_W0RTFc21dz-9" value="Personal" style="rounded=0;whiteSpace=wrap;html=1;fillColor=#D5739D;strokeColor=#000000;gradientColor=#d5739d;" parent="1" vertex="1">
          <mxGeometry x="90" y="710" width="120" height="60" as="geometry" />
        </mxCell>
        <mxCell id="lnU0kiS0dHdqZ7TzeEBg-1" style="edgeStyle=orthogonalEdgeStyle;rounded=0;orthogonalLoop=1;jettySize=auto;html=1;dashed=1;endArrow=none;endFill=0;" parent="1" edge="1">
          <mxGeometry relative="1" as="geometry">
            <mxPoint x="1019.29" y="1020" as="targetPoint" />
            <mxPoint x="1020" y="840" as="sourcePoint" />
          </mxGeometry>
        </mxCell>
        <mxCell id="lnU0kiS0dHdqZ7TzeEBg-2" value="" style="edgeStyle=orthogonalEdgeStyle;rounded=0;orthogonalLoop=1;jettySize=auto;html=1;dashed=1;endArrow=none;endFill=0;" parent="1" target="c4wT1sL5N_W0RTFc21dz-5" edge="1">
          <mxGeometry relative="1" as="geometry">
            <mxPoint x="459.17" y="1030" as="targetPoint" />
            <mxPoint x="459.17" y="530" as="sourcePoint" />
          </mxGeometry>
        </mxCell>
        <mxCell id="lnU0kiS0dHdqZ7TzeEBg-7" style="edgeStyle=orthogonalEdgeStyle;rounded=0;orthogonalLoop=1;jettySize=auto;html=1;entryX=0;entryY=0;entryDx=0;entryDy=0;dashed=1;strokeColor=#80FF00;" parent="1" source="c4wT1sL5N_W0RTFc21dz-5" target="lnU0kiS0dHdqZ7TzeEBg-11" edge="1">
          <mxGeometry relative="1" as="geometry">
            <mxPoint x="690" y="795" as="targetPoint" />
          </mxGeometry>
        </mxCell>
        <mxCell id="c4wT1sL5N_W0RTFc21dz-5" value="Agenda" style="rounded=0;whiteSpace=wrap;html=1;fillColor=#F8CECC;strokeColor=#996185;gradientColor=#F8CECC;" parent="1" vertex="1">
          <mxGeometry x="400" y="710" width="120" height="60" as="geometry" />
        </mxCell>
        <mxCell id="lnU0kiS0dHdqZ7TzeEBg-9" value="" style="edgeStyle=orthogonalEdgeStyle;rounded=0;orthogonalLoop=1;jettySize=auto;html=1;dashed=1;endArrow=none;endFill=0;" parent="1" edge="1">
          <mxGeometry relative="1" as="geometry">
            <mxPoint x="1020" y="780" as="targetPoint" />
            <mxPoint x="1019.29" y="520" as="sourcePoint" />
          </mxGeometry>
        </mxCell>
        <mxCell id="lnU0kiS0dHdqZ7TzeEBg-10" value="Cita" style="rounded=0;whiteSpace=wrap;html=1;fillColor=#f8cecc;strokeColor=#b85450;" parent="1" vertex="1">
          <mxGeometry x="960" y="780" width="120" height="60" as="geometry" />
        </mxCell>
        <mxCell id="lnU0kiS0dHdqZ7TzeEBg-12" style="edgeStyle=orthogonalEdgeStyle;rounded=0;orthogonalLoop=1;jettySize=auto;html=1;dashed=1;" parent="1" source="lnU0kiS0dHdqZ7TzeEBg-11" target="lnU0kiS0dHdqZ7TzeEBg-10" edge="1">
          <mxGeometry relative="1" as="geometry" />
        </mxCell>
        <mxCell id="lnU0kiS0dHdqZ7TzeEBg-11" value="Turno" style="rounded=0;whiteSpace=wrap;html=1;fillColor=#f8cecc;strokeColor=#b85450;" parent="1" vertex="1">
          <mxGeometry x="690" y="780" width="120" height="60" as="geometry" />
        </mxCell>
      </root>
    </mxGraphModel>
  </diagram>
</mxfile>
